<svg xmlns="http://www.w3.org/2000/svg" viewBox="0 0 741.41 783.2"><title>isometric-house</title><g style="isolation:isolate"><polygon points="458.78 437.01 367.17 494.94 280.96 422.49 60.67 541.87 340.81 657.6 497.15 657.6 741.41 534.87 458.78 437.01" fill="#6bb0e1" fill-rule="evenodd" opacity="0.5"/><polygon points="280.96 422.55 60.67 541.94 340.81 657.66 558.39 549.67 280.96 422.55" fill="#98989d" fill-rule="evenodd"/><polygon points="181.14 157.46 49.11 375.04 340.81 495.56 472.84 277.98 181.14 157.46" fill="#faa227" fill-rule="evenodd"/><polygon points="340.81 657.66 60.67 541.94 60.67 379.84 340.81 495.56 340.81 657.66" fill="#0b6db7" fill-rule="evenodd"/><polygon points="472.84 277.98 340.81 495.56 354.43 488.83 556.85 388.79 572.66 380.98 472.84 277.98" fill="#f58023" fill-rule="evenodd"/><polygon points="469.73 298.96 558.09 387.73 558.39 387.58 558.39 388.03 558.39 549.67 340.81 657.66 340.81 495.56 354.46 488.79 469.73 298.96" fill="#26426b" fill-rule="evenodd"/><polygon points="203.59 276.96 249.93 350.52 254.22 349.18 255.47 348.42 255.66 348.42 304.95 320.04 246.77 387.18 181.34 361.79 181.34 297.11 181.34 293.19 203.59 276.96" fill="#0b6db7" fill-rule="evenodd"/><polygon points="248.78 348.89 249.93 350.52 254.22 349.18 255.47 348.42 255.66 348.42 304.95 320.04 297.79 330.27 248.78 384.51 246.77 387.18 246.77 355.59 246.77 345.75 248.78 348.89" fill="#26426b" fill-rule="evenodd"/><polygon points="254 349.37 253.81 349.37 253.14 348.42 205.37 272.46 203.94 270.27 280.85 225.94 282.28 228.24 282.85 229.47 330.62 305.14 254 349.37" fill="#f58023" fill-rule="evenodd"/><polygon points="203.59 276.96 249.93 350.52 254.23 349.18 204.16 270.08 166.43 298.45 169.29 302.08 203.59 276.96" fill="#e16f27" fill-rule="evenodd"/><path d="M512.62,463.05,452.5,492.7,452.72,625l60.12-29.65-.23-132.27Zm4.66-7.65h0l.22,137.72-69.43,34.14-.22-137.67Z" transform="translate(-29 -8.44)" fill="#fff" fill-rule="evenodd"/><polygon points="483.85 586.88 423.72 616.53 423.72 611.16 479.19 583.77 483.85 586.88" fill="#085793" fill-rule="evenodd"/><polygon points="483.62 454.61 483.85 586.88 479.19 583.77 478.96 456.88 483.62 454.61" fill="#085793" fill-rule="evenodd"/><polygon points="479.19 456.72 479.19 583.77 423.72 611.21 423.5 484.26 479.19 456.72" fill="#f47b23" fill-rule="evenodd"/><path d="M464.12,550.81a5.15,5.15,0,0,1,2.06-2,2.08,2.08,0,0,1,2.1,0l-3.69-2.46h0a.64.64,0,0,0-.15-.09l-.15-.07-.17,0-.17,0-.2,0a1.25,1.25,0,0,0-.22,0l-.26,0-.35.1a2.92,2.92,0,0,0-.42.17,4.31,4.31,0,0,0-1,.67,3.32,3.32,0,0,0-.31.33,3.53,3.53,0,0,0-.25.26l-.19.25-.17.25a1.56,1.56,0,0,0-.16.23h0c0,.07-.09.14-.13.21l-.13.24L460,549a1.93,1.93,0,0,1-.11.25,2.5,2.5,0,0,0-.1.28l-.09.29-.09.33c0,.14,0,.28-.07.41a5.72,5.72,0,0,0,0,.58,2.24,2.24,0,0,0,.87,1.95l3.69,2.48a2.23,2.23,0,0,1-.87-2,5.49,5.49,0,0,1,.85-2.82Z" transform="translate(-29 -8.44)" fill="#d76a2a" fill-rule="evenodd"/><path d="M466.18,548.81c1.64-.81,2.95.06,3,1.95a5.83,5.83,0,0,1-2.94,4.81c-1.6.79-2.95-.1-2.95-1.95A5.77,5.77,0,0,1,466.18,548.81Z" transform="translate(-29 -8.44)" fill="#7abae6" fill-rule="evenodd"/><path d="M459,609.74l-.13-46.63,43.52-21.24.14,46.64L459,609.74Zm-.31-112.25.18,61.62,43.52-21.23-.17-61.63-43.53,21.24Zm46.63,43v-4l-.18-65.09-49.39,24.09.2,65.09v4l.15,50.1,49.38-24.1Z" transform="translate(-29 -8.44)" fill="#d76a2a" fill-rule="evenodd"/><polygon points="466.35 417.29 434.9 432.84 434.9 426.63 460.48 414.04 466.35 417.29" fill="#b3cfd7" fill-rule="evenodd"/><polygon points="466.34 374.67 466.35 417.29 460.48 414.04 460.48 377.64 466.34 374.67" fill="#fff" fill-rule="evenodd"/><polygon points="460.48 377.64 460.48 414.04 434.9 426.63 434.89 390.23 460.48 377.64" fill="#d76a2a" fill-rule="evenodd"/><polygon points="453.8 409.51 453.8 380.93 434.89 390.23 453.8 409.51" fill="#f47b23" fill-rule="evenodd"/><polygon points="434.89 394.47 451 410.89 448.19 412.26 434.89 398.87 434.89 394.47" fill="#f47b23" fill-rule="evenodd"/><polygon points="456.68 411.52 456.67 379.51 460.48 377.64 460.48 414.04 434.9 426.63 434.9 422.23 456.68 411.52" fill="#085793" fill-rule="evenodd"/><path d="M260,503.17v46.34l41.91,17.61V520.78L260,503.17Zm-4.3-6.62h0l50.51,20.93v56.27l-50.51-20.93Z" transform="translate(-29 -8.44)" fill="#fff" fill-rule="evenodd"/><polygon points="230.95 541.07 272.86 558.68 272.86 553.72 235.25 537.76 230.95 541.07" fill="#b3cfd7" fill-rule="evenodd"/><polygon points="230.95 494.73 230.95 541.07 235.25 537.76 235.25 496.38 230.95 494.73" fill="#78a7b2" fill-rule="evenodd"/><polygon points="235.25 496.38 235.25 537.76 272.86 553.72 272.86 512.34 235.25 496.38" fill="#d76a2a" fill-rule="evenodd"/><polygon points="242.8 531.55 242.8 499.29 272.86 512.34 242.8 531.55" fill="#f47b23" fill-rule="evenodd"/><polygon points="272.86 517.12 245.96 532.77 249.13 534 272.86 522.09 272.86 517.12" fill="#f47b23" fill-rule="evenodd"/><polygon points="239.55 534.46 239.55 498.04 235.25 496.38 235.25 537.76 272.86 553.72 272.86 548.75 239.55 534.46" fill="#085793" fill-rule="evenodd"/><path d="M147.85,461.38v46.34l41.91,17.61V479l-41.91-17.61Zm-4.3-6.62h0l50.51,20.93V532L143.55,511Z" transform="translate(-29 -8.44)" fill="#fff" fill-rule="evenodd"/><polygon points="118.85 499.28 160.75 516.89 160.75 511.93 123.15 495.98 118.85 499.28" fill="#b3cfd7" fill-rule="evenodd"/><polygon points="118.85 452.94 118.85 499.28 123.15 495.98 123.15 454.6 118.85 452.94" fill="#78a7b2" fill-rule="evenodd"/><polygon points="123.15 454.6 123.15 495.98 160.75 511.93 160.75 470.55 123.15 454.6" fill="#d76a2a" fill-rule="evenodd"/><polygon points="130.69 489.76 130.69 457.5 160.75 470.55 130.69 489.76" fill="#f47b23" fill-rule="evenodd"/><polygon points="160.75 475.33 133.86 490.99 137.02 492.21 160.75 480.3 160.75 475.33" fill="#f47b23" fill-rule="evenodd"/><polygon points="127.45 492.67 127.45 456.25 123.15 454.6 123.15 495.98 160.75 511.93 160.75 506.96 127.45 492.67" fill="#085793" fill-rule="evenodd"/><path d="M427.92,504v67.79l-31.08,15.6V519.58L427.92,504Zm4-6.67h0L392.81,517V594l39.13-19.64Z" transform="translate(-29 -8.44)" fill="#fff" fill-rule="evenodd"/><polygon points="398.92 563.33 367.84 578.93 367.84 574.28 394.89 560.7 398.92 563.33" fill="#b3cfd7" fill-rule="evenodd"/><polygon points="398.92 495.54 398.92 563.33 394.89 560.7 394.89 497.56 398.92 495.54" fill="#78a7b2" fill-rule="evenodd"/><polygon points="394.89 497.56 394.89 560.7 367.84 574.28 367.84 511.14 394.89 497.56" fill="#d76a2a" fill-rule="evenodd"/><polygon points="387.83 531.32 387.83 501.11 367.84 511.14 387.83 531.32" fill="#f47b23" fill-rule="evenodd"/><polygon points="367.84 515.62 384.86 532.81 381.9 534.29 367.84 520.27 367.84 515.62" fill="#f47b23" fill-rule="evenodd"/><polygon points="390.87 558.08 390.87 499.58 394.89 497.56 394.89 560.7 367.84 574.28 367.84 569.63 390.87 558.08" fill="#085793" fill-rule="evenodd"/><polygon points="367.84 541.35 394.89 527.77 397.31 529.34 367.84 544.13 367.84 541.35" fill="#b3cfd7" fill-rule="evenodd"/><polygon points="367.84 544.13 397.31 529.34 397.31 531.82 367.84 546.61 367.84 544.13" fill="#eaf0f2" fill-rule="evenodd"/><polygon points="194.98 350.09 226.43 362.37 226.43 356.16 200.84 346.24 194.98 350.09" fill="#b3cfd7" fill-rule="evenodd"/><polygon points="194.99 307.47 194.98 350.09 200.84 346.24 200.85 309.84 194.99 307.47" fill="#fff" fill-rule="evenodd"/><polygon points="200.85 309.84 200.84 346.24 226.43 356.16 226.44 319.76 200.85 309.84" fill="#d76a2a" fill-rule="evenodd"/><polygon points="207.52 341 207.53 312.43 226.44 319.76 207.52 341" fill="#f47b23" fill-rule="evenodd"/><polygon points="226.44 324 210.33 342.09 213.13 343.18 226.43 328.4 226.44 324" fill="#f47b23" fill-rule="evenodd"/><polygon points="204.65 343.31 204.66 311.31 200.85 309.84 200.84 346.24 226.43 356.16 226.43 351.76 204.65 343.31" fill="#085793" fill-rule="evenodd"/><path d="M566.36,435.82v67.79l-31.08,15.6V451.41l31.08-15.6Zm4-6.67h0l-39.13,19.64v77.09l39.13-19.64Z" transform="translate(-29 -8.44)" fill="#fff" fill-rule="evenodd"/><polygon points="537.36 495.17 506.28 510.76 506.28 506.12 533.34 492.54 537.36 495.17" fill="#b3cfd7" fill-rule="evenodd"/><polygon points="537.36 427.38 537.36 495.17 533.34 492.54 533.34 429.4 537.36 427.38" fill="#78a7b2" fill-rule="evenodd"/><polygon points="533.34 429.4 533.34 492.54 506.28 506.12 506.28 442.97 533.34 429.4" fill="#d76a2a" fill-rule="evenodd"/><polygon points="526.27 463.15 526.27 432.94 506.28 442.97 526.27 463.15" fill="#f47b23" fill-rule="evenodd"/><polygon points="506.28 447.45 523.31 464.64 520.34 466.13 506.28 452.11 506.28 447.45" fill="#f47b23" fill-rule="evenodd"/><polygon points="529.31 489.91 529.31 431.42 533.34 429.4 533.34 492.54 506.28 506.12 506.28 501.46 529.31 489.91" fill="#085793" fill-rule="evenodd"/><polygon points="506.28 473.18 533.34 459.61 535.76 461.17 506.28 475.96 506.28 473.18" fill="#b3cfd7" fill-rule="evenodd"/><polygon points="506.28 475.96 535.76 461.17 535.76 463.65 506.28 478.44 506.28 475.96" fill="#eaf0f2" fill-rule="evenodd"/><path d="M472.92,270.1a1.53,1.53,0,0,1-1.53-1.53v-9.18a1.53,1.53,0,0,1,3.06,0v9.18a1.53,1.53,0,0,1-1.53,1.53Zm0-15.3h0a1.53,1.53,0,0,1-1.53-1.53v-9.18a1.53,1.53,0,1,1,3.06,0v9.18a1.53,1.53,0,0,1-1.53,1.53Zm0-15.3h0a1.53,1.53,0,0,1-1.53-1.53v-9.18a1.53,1.53,0,1,1,3.06,0V238a1.53,1.53,0,0,1-1.53,1.53Zm0-15.3h0a1.53,1.53,0,0,1-1.53-1.53v-9.18a1.53,1.53,0,0,1,3.06,0v9.18a1.53,1.53,0,0,1-1.53,1.53Zm0-15.3h0a1.53,1.53,0,0,1-1.53-1.53v-9.18a1.53,1.53,0,0,1,3.06,0v9.18a1.53,1.53,0,0,1-1.53,1.53Zm0-15.3h0a1.53,1.53,0,0,1-1.53-1.53v-9.18a1.53,1.53,0,1,1,3.06,0v9.18a1.53,1.53,0,0,1-1.53,1.53Zm0-15.3h0a1.53,1.53,0,0,1-1.53-1.53v-9.18a1.53,1.53,0,0,1,3.06,0v9.18a1.53,1.53,0,0,1-1.53,1.53Zm0-15.3h0a1.53,1.53,0,0,1-1.53-1.53v-9.18a1.53,1.53,0,1,1,3.06,0v9.18a1.53,1.53,0,0,1-1.53,1.53Zm0-15.3h0a1.53,1.53,0,0,1-1.53-1.53V137a1.53,1.53,0,1,1,3.06,0v9.18a1.53,1.53,0,0,1-1.53,1.53Zm0-15.3h0a1.53,1.53,0,0,1-1.53-1.53v-9.18a1.53,1.53,0,0,1,3.06,0v9.18a1.53,1.53,0,0,1-1.53,1.53Zm0-15.3h0a1.53,1.53,0,0,1-1.53-1.53v-9.18a1.53,1.53,0,0,1,3.06,0v9.18a1.53,1.53,0,0,1-1.53,1.53Zm0-15.3h0a1.53,1.53,0,0,1-1.53-1.53V91.08a1.53,1.53,0,1,1,3.06,0v9.18a1.53,1.53,0,0,1-1.53,1.53Zm0-15.3h0A1.53,1.53,0,0,1,471.39,85V75.78a1.53,1.53,0,0,1,3.06,0V85A1.53,1.53,0,0,1,472.92,86.49Z" transform="translate(-29 -8.44)" fill="#fff" fill-rule="evenodd"/><path d="M58.22,240.46a1.53,1.53,0,0,1-1.53-1.53v-4.59a1.53,1.53,0,0,1,3.06,0v4.59A1.53,1.53,0,0,1,58.22,240.46Z" transform="translate(-29 -8.44)" fill="#fff" fill-rule="evenodd"/><path d="M58.22,460.27a1.53,1.53,0,0,1-1.53-1.53v-9.42a1.53,1.53,0,1,1,3.06,0v9.42a1.53,1.53,0,0,1-1.53,1.53Zm0-15.7h0A1.53,1.53,0,0,1,56.69,443v-9.42a1.53,1.53,0,1,1,3.06,0V443a1.53,1.53,0,0,1-1.53,1.53Zm0-15.7h0a1.53,1.53,0,0,1-1.53-1.53v-9.42a1.53,1.53,0,1,1,3.06,0v9.42a1.53,1.53,0,0,1-1.53,1.53Zm0-15.7h0a1.53,1.53,0,0,1-1.53-1.53v-9.42a1.53,1.53,0,1,1,3.06,0v9.42a1.53,1.53,0,0,1-1.53,1.53Zm0-15.7h0a1.53,1.53,0,0,1-1.53-1.53v-9.42a1.53,1.53,0,1,1,3.06,0v9.42a1.53,1.53,0,0,1-1.53,1.53Zm0-15.7h0a1.53,1.53,0,0,1-1.53-1.53v-9.42a1.53,1.53,0,1,1,3.06,0v9.42a1.53,1.53,0,0,1-1.53,1.53Zm0-15.7h0a1.53,1.53,0,0,1-1.53-1.53v-9.42a1.53,1.53,0,1,1,3.06,0v9.42a1.53,1.53,0,0,1-1.53,1.53Zm0-15.7h0a1.53,1.53,0,0,1-1.53-1.53v-9.42a1.53,1.53,0,1,1,3.06,0v9.42a1.53,1.53,0,0,1-1.53,1.53Zm0-15.7h0a1.53,1.53,0,0,1-1.53-1.53v-9.42a1.53,1.53,0,1,1,3.06,0v9.42a1.53,1.53,0,0,1-1.53,1.53Zm0-15.7h0a1.53,1.53,0,0,1-1.53-1.53V308a1.53,1.53,0,0,1,3.06,0v9.42A1.53,1.53,0,0,1,58.22,319Zm0-15.7h0a1.53,1.53,0,0,1-1.53-1.53v-9.42a1.53,1.53,0,1,1,3.06,0v9.42a1.53,1.53,0,0,1-1.53,1.53Zm0-15.7h0A1.53,1.53,0,0,1,56.69,286v-9.42a1.53,1.53,0,1,1,3.06,0V286a1.53,1.53,0,0,1-1.53,1.53Zm0-15.7h0a1.53,1.53,0,0,1-1.53-1.53v-9.42a1.53,1.53,0,1,1,3.06,0v9.42a1.53,1.53,0,0,1-1.53,1.53Zm0-15.7h0a1.53,1.53,0,0,1-1.53-1.53v-9.42a1.53,1.53,0,1,1,3.06,0v9.42A1.53,1.53,0,0,1,58.22,256.16Z" transform="translate(-29 -8.44)" fill="#fff" fill-rule="evenodd"/><path d="M62.11,473.57a1.54,1.54,0,0,1-.81-.23l-4.62-2.88V465a1.53,1.53,0,1,1,3.06,0v3.74l3.18,2a1.53,1.53,0,0,1-.81,2.83Z" transform="translate(-29 -8.44)" fill="#fff" fill-rule="evenodd"/><path d="M76.14,482.31a1.51,1.51,0,0,1-.81-.23l-8.42-5.25a1.53,1.53,0,0,1,1.62-2.59L77,479.49a1.53,1.53,0,0,1-.81,2.83Z" transform="translate(-29 -8.44)" fill="#fff" fill-rule="evenodd"/><path d="M85.65,488.24a1.51,1.51,0,0,1-.81-.23l-3.9-2.43A1.53,1.53,0,0,1,82.57,483l3.9,2.43a1.53,1.53,0,0,1-.81,2.83Z" transform="translate(-29 -8.44)" fill="#fff" fill-rule="evenodd"/><path d="M396.77,662.05a1.53,1.53,0,0,1-1.53-1.53v-4.59a1.53,1.53,0,1,1,3.06,0v4.59A1.53,1.53,0,0,1,396.77,662.05Z" transform="translate(-29 -8.44)" fill="#fff" fill-rule="evenodd"/><path d="M396.77,695.68a1.53,1.53,0,0,1-1.53-1.53V684.06a1.53,1.53,0,1,1,3.06,0v10.09a1.53,1.53,0,0,1-1.53,1.53Zm0-16.82h0a1.53,1.53,0,0,1-1.53-1.53V667.25a1.53,1.53,0,1,1,3.06,0v10.09A1.53,1.53,0,0,1,396.77,678.86Z" transform="translate(-29 -8.44)" fill="#fff" fill-rule="evenodd"/><path d="M392.82,709.33a1.53,1.53,0,0,1-.78-2.85l3.2-1.88v-3.71a1.53,1.53,0,1,1,3.06,0v5.47l-4.71,2.77A1.53,1.53,0,0,1,392.82,709.33Z" transform="translate(-29 -8.44)" fill="#fff" fill-rule="evenodd"/><path d="M262.42,786a1.53,1.53,0,0,1-.78-2.85l7.82-4.6A1.53,1.53,0,0,1,271,781.2l-7.82,4.6a1.53,1.53,0,0,1-.78.21Zm13-7.67h0a1.53,1.53,0,0,1-.78-2.85l7.82-4.6a1.53,1.53,0,0,1,1.55,2.64l-7.82,4.6a1.53,1.53,0,0,1-.78.21Zm13-7.67h0a1.53,1.53,0,0,1-.78-2.85l7.82-4.6a1.53,1.53,0,0,1,1.55,2.64l-7.82,4.6a1.52,1.52,0,0,1-.78.21Zm13-7.67h0a1.53,1.53,0,0,1-.78-2.85l7.82-4.6a1.53,1.53,0,0,1,1.55,2.64l-7.82,4.6a1.52,1.52,0,0,1-.78.21Zm13-7.67h0a1.53,1.53,0,0,1-.78-2.85l7.82-4.6a1.53,1.53,0,0,1,1.55,2.64l-7.82,4.6a1.52,1.52,0,0,1-.78.21Zm13-7.67h0a1.53,1.53,0,0,1-.78-2.85l7.82-4.6a1.53,1.53,0,0,1,1.55,2.64l-7.82,4.6a1.53,1.53,0,0,1-.78.21Zm13-7.67h0a1.53,1.53,0,0,1-.78-2.85l7.82-4.6a1.53,1.53,0,0,1,1.55,2.64l-7.82,4.6a1.52,1.52,0,0,1-.78.21Zm13-7.67h0a1.53,1.53,0,0,1-.78-2.85l7.82-4.6a1.53,1.53,0,0,1,1.55,2.64l-7.82,4.6a1.53,1.53,0,0,1-.78.21Zm13-7.67h0a1.53,1.53,0,0,1-.78-2.85l7.82-4.6a1.53,1.53,0,0,1,1.55,2.64l-7.82,4.6a1.53,1.53,0,0,1-.78.21Zm13-7.67h0a1.53,1.53,0,0,1-.78-2.85l7.82-4.6a1.53,1.53,0,0,1,1.55,2.64l-7.82,4.6A1.53,1.53,0,0,1,379.78,717Z" transform="translate(-29 -8.44)" fill="#fff" fill-rule="evenodd"/><path d="M253.26,791.65l-4.75-2.74a1.53,1.53,0,1,1,1.53-2.65l3.2,1.85,3.19-1.88a1.53,1.53,0,0,1,1.55,2.64Z" transform="translate(-29 -8.44)" fill="#fff" fill-rule="evenodd"/><path d="M243.25,785.64a1.53,1.53,0,0,1-.76-.2l-9-5.21a1.53,1.53,0,0,1,1.53-2.65l9,5.21a1.53,1.53,0,0,1-.77,2.86Zm-15.05-8.69h0a1.54,1.54,0,0,1-.77-.2l-9-5.21a1.53,1.53,0,0,1,1.53-2.65l9,5.21a1.53,1.53,0,0,1-.76,2.86Z" transform="translate(-29 -8.44)" fill="#fff" fill-rule="evenodd"/><path d="M213.15,768.26a1.54,1.54,0,0,1-.77-.2l-4-2.3a1.53,1.53,0,0,1,1.53-2.65l4,2.3a1.53,1.53,0,0,1-.77,2.86Z" transform="translate(-29 -8.44)" fill="#fff" fill-rule="evenodd"/><path d="M473.17,616.63a1.53,1.53,0,0,1,.77.2l4,2.3a1.53,1.53,0,1,1-1.53,2.65l-4-2.3a1.53,1.53,0,0,1,.77-2.86Z" transform="translate(-29 -8.44)" fill="#fff" fill-rule="evenodd"/><path d="M481.76,621.58a1.54,1.54,0,0,1,.77.2l6.91,4a1.53,1.53,0,0,1-1.53,2.65l-6.91-4a1.53,1.53,0,0,1,.77-2.86Zm11.52,6.65h0a1.53,1.53,0,0,1,.77.2l6.91,4a1.53,1.53,0,0,1-1.53,2.65l-6.91-4a1.53,1.53,0,0,1,.77-2.86Zm11.52,6.65h0a1.53,1.53,0,0,1,.77.2l6.92,4a1.53,1.53,0,1,1-1.53,2.65l-6.92-4a1.53,1.53,0,0,1,.77-2.86Z" transform="translate(-29 -8.44)" fill="#fff" fill-rule="evenodd"/><path d="M524.27,641.52a1.53,1.53,0,0,1,.77,2.85l-4.73,2.76-4.73-2.73a1.53,1.53,0,0,1,1.53-2.65l3.2,1.85,3.2-1.86A1.54,1.54,0,0,1,524.27,641.52Z" transform="translate(-29 -8.44)" fill="#fff" fill-rule="evenodd"/><path d="M647,569.94a1.53,1.53,0,0,1,.77,2.85l-8.19,4.77a1.53,1.53,0,0,1-1.54-2.64l8.19-4.77a1.54,1.54,0,0,1,.77-.21Zm-13.64,8h0a1.53,1.53,0,0,1,.77,2.85L626,585.51a1.53,1.53,0,0,1-1.54-2.64l8.18-4.77a1.54,1.54,0,0,1,.77-.21Zm-13.64,8h0a1.53,1.53,0,0,1,.77,2.85l-8.19,4.77a1.53,1.53,0,0,1-1.54-2.64l8.19-4.77a1.53,1.53,0,0,1,.77-.21Zm-13.64,8h0a1.53,1.53,0,0,1,.77,2.85l-8.18,4.77a1.53,1.53,0,0,1-1.54-2.64l8.18-4.77a1.54,1.54,0,0,1,.77-.21Zm-13.64,8h0a1.53,1.53,0,0,1,.77,2.85l-8.19,4.77a1.53,1.53,0,0,1-1.54-2.65L591.7,602a1.53,1.53,0,0,1,.77-.21Zm-13.64,8h0a1.53,1.53,0,0,1,.77,2.85l-8.19,4.77a1.53,1.53,0,0,1-1.54-2.65l8.19-4.77a1.53,1.53,0,0,1,.77-.21Zm-13.64,8h0a1.53,1.53,0,0,1,.77,2.85l-8.18,4.77a1.53,1.53,0,0,1-1.54-2.64l8.18-4.77a1.53,1.53,0,0,1,.77-.21Zm-13.64,8h0a1.53,1.53,0,0,1,.77,2.85l-8.19,4.77a1.53,1.53,0,0,1-1.54-2.65l8.19-4.77a1.53,1.53,0,0,1,.77-.21Zm-13.64,8h0a1.53,1.53,0,0,1,.77,2.85l-8.19,4.77a1.53,1.53,0,0,1-1.54-2.64l8.19-4.77A1.53,1.53,0,0,1,537.91,633.56Z" transform="translate(-29 -8.44)" fill="#fff" fill-rule="evenodd"/><path d="M656.45,564.44a1.53,1.53,0,0,1,.77,2.85l-4,2.31a1.53,1.53,0,0,1-1.54-2.65l4-2.31A1.53,1.53,0,0,1,656.45,564.44Z" transform="translate(-29 -8.44)" fill="#fff" fill-rule="evenodd"/><path d="M72.17,590c9.41,5.43,24.66,5.43,34.07,0s9.41-14.24,0-19.67-24.66-5.43-34.07,0S62.76,584.58,72.17,590Z" transform="translate(-29 -8.44)" fill-rule="evenodd" opacity="0.15" style="mix-blend-mode:multiply"/><path d="M56.69,549.6a34.49,34.49,0,0,0,69,0c0-19-15.44-68.71-34.49-68.71S56.69,530.55,56.69,549.6Z" transform="translate(-29 -8.44)" fill="#26426b" fill-rule="evenodd"/><ellipse cx="104.59" cy="518.66" rx="6.3" ry="19.05" transform="translate(-157.77 35.36) rotate(-14.77)" fill="#0b6db7"/><path d="M116.38,585.11c6,3.49,15.83,3.49,21.86,0s6-9.14,0-12.62-15.83-3.49-21.86,0S110.34,581.63,116.38,585.11Z" transform="translate(-29 -8.44)" fill-rule="evenodd" opacity="0.15" style="mix-blend-mode:multiply"/><path d="M106.44,559.18a22.13,22.13,0,1,0,44.27,0c0-12.22-9.91-44.09-22.13-44.09S106.44,547,106.44,559.18Z" transform="translate(-29 -8.44)" fill="#005eab" fill-rule="evenodd"/><ellipse cx="137.19" cy="539.33" rx="4.04" ry="12.23" transform="translate(-161.96 44.35) rotate(-14.77)" fill="#0b6db7"/><path d="M616.81,570.43c-7.45,4.3-19.53,4.3-27,0s-7.45-11.27,0-15.57,19.53-4.3,27,0S624.26,566.13,616.81,570.43Z" transform="translate(-29 -8.44)" fill-rule="evenodd" opacity="0.15" style="mix-blend-mode:multiply"/><path d="M629.07,538.43a27.31,27.31,0,1,1-54.62,0c0-15.08,12.23-54.4,27.31-54.4S629.07,523.35,629.07,538.43Z" transform="translate(-29 -8.44)" fill="#005eab" fill-rule="evenodd"/><ellipse cx="591.14" cy="513.94" rx="15.09" ry="4.99" transform="translate(-85.52 946.08) rotate(-75.23)" fill="#0b6db7"/><path d="M371.7,679.25c-6.39,3.69-16.75,3.69-23.15,0s-6.39-9.67,0-13.36,16.75-3.69,23.15,0S378.09,675.56,371.7,679.25Z" transform="translate(-29 -8.44)" fill-rule="evenodd" opacity="0.15" style="mix-blend-mode:multiply"/><circle cx="331.13" cy="647.51" r="21.65" fill="#005eab"/><circle cx="325.13" cy="641.51" r="8.57" fill="#0b6db7"/><path d="M691.61,574.38a29.46,29.46,0,1,0-29.46-29.46A29.52,29.52,0,0,0,691.61,574.38Z" transform="translate(-29 -8.44)" fill="#fff" fill-rule="evenodd"/><path d="M718.21,518.65h0a5.24,5.24,0,0,0-7.66,1.31l-19.25,28.6-11-8.65a5.24,5.24,0,0,0-7.66,1.31h0a6.25,6.25,0,0,0,1.21,8.27l15.47,12.13h0a5.24,5.24,0,0,0,7.66-1.31h0l22.47-33.39A6.25,6.25,0,0,0,718.21,518.65Z" transform="translate(-29 -8.44)" fill="#0b6db7"/><path d="M718.33,531.7l-4.69,6.87a22.89,22.89,0,1,1-9.16-12.45l3.76-5.82a29.74,29.74,0,1,0,10.92,13.19Q718.77,532.58,718.33,531.7Z" transform="translate(-29 -8.44)" fill="#0b6db7"/><path d="M177.73,768.14a29.46,29.46,0,1,0-29.46-29.46A29.52,29.52,0,0,0,177.73,768.14Z" transform="translate(-29 -8.44)" fill="#fff" fill-rule="evenodd"/><path d="M204.34,712.41h0a5.24,5.24,0,0,0-7.66,1.31l-19.25,28.6-11-8.65a5.24,5.24,0,0,0-7.66,1.31h0a6.25,6.25,0,0,0,1.21,8.27l15.47,12.13h0a5.24,5.24,0,0,0,7.66-1.31h0l22.47-33.39A6.25,6.25,0,0,0,204.34,712.41Z" transform="translate(-29 -8.44)" fill="#0b6db7"/><path d="M204.46,725.46l-4.69,6.87a22.89,22.89,0,1,1-9.16-12.45l3.76-5.82a29.74,29.74,0,1,0,10.92,13.19Q204.9,726.34,204.46,725.46Z" transform="translate(-29 -8.44)" fill="#0b6db7"/><path d="M58.65,226.32a29.46,29.46,0,1,0-29.46-29.46A29.52,29.52,0,0,0,58.65,226.32Z" transform="translate(-29 -8.44)" fill="#fff" fill-rule="evenodd"/><path d="M85.26,170.59h0a5.24,5.24,0,0,0-7.66,1.31L58.35,200.5l-11-8.65a5.24,5.24,0,0,0-7.66,1.31h0a6.25,6.25,0,0,0,1.21,8.27l15.47,12.13h0A5.24,5.24,0,0,0,64,212.24h0l22.47-33.39A6.25,6.25,0,0,0,85.26,170.59Z" transform="translate(-29 -8.44)" fill="#0b6db7"/><path d="M85.38,183.64l-4.69,6.87a22.89,22.89,0,1,1-9.16-12.45l3.76-5.82a29.74,29.74,0,1,0,10.92,13.19Q85.82,184.52,85.38,183.64Z" transform="translate(-29 -8.44)" fill="#0b6db7"/><path d="M473.89,67.51A29.46,29.46,0,1,0,444.42,38,29.52,29.52,0,0,0,473.89,67.51Z" transform="translate(-29 -8.44)" fill="#fff" fill-rule="evenodd"/><path d="M500.49,11.78h0a5.24,5.24,0,0,0-7.66,1.31l-19.25,28.6-11-8.65a5.24,5.24,0,0,0-7.66,1.31h0a6.25,6.25,0,0,0,1.21,8.27l15.47,12.13h0a5.24,5.24,0,0,0,7.66-1.31h0L501.7,20A6.25,6.25,0,0,0,500.49,11.78Z" transform="translate(-29 -8.44)" fill="#0b6db7"/><path d="M500.61,24.83l-4.69,6.87a22.89,22.89,0,1,1-9.16-12.45l3.76-5.82a29.74,29.74,0,1,0,10.92,13.19Q501.05,25.71,500.61,24.83Z" transform="translate(-29 -8.44)" fill="#0b6db7"/></g></svg>