<svg xmlns="http://www.w3.org/2000/svg" viewBox="0 0 1654.3 1568.33"><title>Asset 2</title><g style="isolation:isolate"><polygon points="1088.36 875.1 904.9 991.1 732.28 846.02 291.16 1085.06 852.12 1316.8 1165.19 1316.8 1654.3 1071.05 1088.36 875.1" fill="#75b2e2" fill-rule="evenodd" opacity="0.5"/><polygon points="732.28 846.13 291.16 1085.2 852.12 1316.93 1287.82 1100.68 732.28 846.13" fill="#9e9d9f" fill-rule="evenodd"/><polygon points="532.4 315.3 268.01 751 852.12 992.34 1116.52 556.64 532.4 315.3" fill="#f6a800" fill-rule="evenodd"/><polygon points="852.12 1316.93 291.16 1085.2 291.16 760.62 852.12 992.34 852.12 1316.93" fill="#0065b1" fill-rule="evenodd"/><polygon points="1116.52 556.64 852.12 992.34 879.4 978.86 1284.72 778.54 1316.39 762.89 1116.52 556.64" fill="#f08100" fill-rule="evenodd"/><polygon points="1110.27 598.65 1287.22 776.41 1287.82 776.11 1287.82 777.01 1287.82 1100.68 852.12 1316.93 852.12 992.34 879.45 978.78 1110.27 598.65" fill="#093b66" fill-rule="evenodd"/><polygon points="577.35 554.59 670.14 701.9 678.74 699.22 681.24 697.69 681.62 697.69 780.33 640.87 663.82 775.31 532.78 724.47 532.78 594.95 532.78 587.11 577.35 554.59" fill="#0065b1" fill-rule="evenodd"/><polygon points="667.84 698.64 670.14 701.9 678.74 699.22 681.24 697.69 681.62 697.69 780.33 640.87 765.99 661.35 667.84 769.96 663.82 775.31 663.82 712.04 663.82 692.34 667.84 698.64" fill="#093b66" fill-rule="evenodd"/><polygon points="678.29 699.6 677.91 699.6 676.58 697.68 580.92 545.6 578.04 541.2 732.05 452.43 734.92 457.03 736.07 459.51 831.71 611.03 678.29 699.6" fill="#f08100" fill-rule="evenodd"/><polygon points="577.35 554.59 670.14 701.9 678.75 699.22 578.5 540.82 502.94 597.63 508.67 604.9 577.35 554.59" fill="#e06c07" fill-rule="evenodd"/><path d="M1138.09,910.33,1017.7,969.71l.45,264.86,120.39-59.38-.45-264.86Zm9.32-15.31h0l.44,275.78-139,68.37-.44-275.67Z" fill="#fff" fill-rule="evenodd"/><polygon points="1138.55 1175.19 1018.15 1234.57 1018.15 1223.81 1129.22 1168.98 1138.55 1175.19" fill="#004c8e" fill-rule="evenodd"/><polygon points="1138.09 910.33 1138.55 1175.19 1129.22 1168.98 1128.77 914.88 1138.09 910.33" fill="#004c8e" fill-rule="evenodd"/><polygon points="1129.22 914.55 1129.22 1168.98 1018.15 1223.91 1017.7 969.71 1129.22 914.55" fill="#ef7a00" fill-rule="evenodd"/><path d="M1041,1086.06a10.32,10.32,0,0,1,4.13-4,4.17,4.17,0,0,1,4.21-.08l-7.4-4.93s0,0,0,0a1.29,1.29,0,0,0-.3-.18l-.3-.14-.33-.09-.33-.09-.39,0a2.51,2.51,0,0,0-.43,0c-.18,0-.35,0-.53.05s-.47.11-.71.19a5.85,5.85,0,0,0-.85.34,8.62,8.62,0,0,0-2,1.33,6.65,6.65,0,0,0-.63.65,7.08,7.08,0,0,0-.5.53l-.39.49c-.12.17-.22.34-.33.5a3.13,3.13,0,0,0-.32.46v0l0,0c-.08.15-.18.27-.26.43s-.18.32-.26.48l-.23.49a3.87,3.87,0,0,1-.22.49,5,5,0,0,0-.19.55l-.18.58c-.06.23-.12.44-.18.65s-.09.56-.13.81a11.46,11.46,0,0,0-.08,1.15,4.49,4.49,0,0,0,1.75,3.9l7.4,5a4.46,4.46,0,0,1-1.73-3.91,11,11,0,0,1,1.71-5.64Z" fill="#d76710" fill-rule="evenodd"/><path d="M1045.11,1082.06c3.28-1.61,5.9.11,5.92,3.9a11.67,11.67,0,0,1-5.88,9.64c-3.21,1.58-5.9-.19-5.9-3.9A11.56,11.56,0,0,1,1045.11,1082.06Z" fill="#87bee7" fill-rule="evenodd"/><path d="M1030.81,1204.06l-.26-93.37,87.15-42.53.27,93.4-87.17,42.51Zm-.63-224.77.36,123.4,87.15-42.51-.35-123.41-87.16,42.53Zm93.37,86,0-8L1123.16,927l-98.9,48.24.4,130.34v8l.29,100.32,98.88-48.25Z" fill="#d76710" fill-rule="evenodd"/><polygon points="1103.51 835.6 1040.53 866.75 1040.53 854.3 1091.77 829.1 1103.51 835.6" fill="#bfd6dd" fill-rule="evenodd"/><polygon points="1103.49 750.26 1103.51 835.6 1091.77 829.1 1091.75 756.21 1103.49 750.26" fill="#fff" fill-rule="evenodd"/><polygon points="1091.75 756.21 1091.77 829.1 1040.53 854.3 1040.51 781.41 1091.75 756.21" fill="#d76710" fill-rule="evenodd"/><polygon points="1078.39 820.02 1078.37 762.79 1040.51 781.41 1078.39 820.02" fill="#ef7a00" fill-rule="evenodd"/><polygon points="1040.51 789.9 1072.77 822.78 1067.15 825.54 1040.52 798.71 1040.51 789.9" fill="#ef7a00" fill-rule="evenodd"/><polygon points="1084.14 824.04 1084.12 759.96 1091.75 756.21 1091.77 829.1 1040.53 854.3 1040.53 845.5 1084.14 824.04" fill="#004c8e" fill-rule="evenodd"/><path d="M632.14,990.66v92.8l83.91,35.27v-92.8l-83.91-35.27Zm-8.61-13.26h0l101.14,41.91V1132l-101.14-41.91Z" fill="#fff" fill-rule="evenodd"/><polygon points="632.14 1083.46 716.06 1118.73 716.06 1108.79 640.75 1076.84 632.14 1083.46" fill="#bfd6dd" fill-rule="evenodd"/><polygon points="632.14 990.66 632.14 1083.46 640.75 1076.84 640.75 993.98 632.14 990.66" fill="#7daab5" fill-rule="evenodd"/><polygon points="640.75 993.98 640.75 1076.84 716.06 1108.79 716.06 1025.93 640.75 993.98" fill="#d76710" fill-rule="evenodd"/><polygon points="655.86 1064.41 655.86 999.81 716.06 1025.93 655.86 1064.41" fill="#ef7a00" fill-rule="evenodd"/><polygon points="716.06 1035.51 662.2 1066.85 668.54 1069.3 716.06 1045.46 716.06 1035.51" fill="#ef7a00" fill-rule="evenodd"/><polygon points="649.36 1070.22 649.36 997.3 640.75 993.98 640.75 1076.84 716.06 1108.79 716.06 1098.85 649.36 1070.22" fill="#004c8e" fill-rule="evenodd"/><path d="M407.66,907v92.8l83.91,35.27v-92.8L407.66,907ZM399,893.72h0l101.14,41.91v112.68L399,1006.4Z" fill="#fff" fill-rule="evenodd"/><polygon points="407.66 999.78 491.57 1035.05 491.57 1025.11 416.26 993.16 407.66 999.78" fill="#bfd6dd" fill-rule="evenodd"/><polygon points="407.66 906.98 407.66 999.78 416.26 993.16 416.26 910.3 407.66 906.98" fill="#7daab5" fill-rule="evenodd"/><polygon points="416.26 910.3 416.26 993.16 491.57 1025.11 491.57 942.25 416.26 910.3" fill="#d76710" fill-rule="evenodd"/><polygon points="431.37 980.73 431.37 916.13 491.57 942.25 431.37 980.73" fill="#ef7a00" fill-rule="evenodd"/><polygon points="491.57 951.84 437.71 983.18 444.05 985.62 491.57 961.78 491.57 951.84" fill="#ef7a00" fill-rule="evenodd"/><polygon points="424.87 986.54 424.87 913.62 416.26 910.3 416.26 993.16 491.57 1025.11 491.57 1015.17 424.87 986.54" fill="#004c8e" fill-rule="evenodd"/><path d="M968.48,992.3V1128l-62.24,31.23V1023.53l62.24-31.23Zm8.06-13.35h0l-78.36,39.32v154.36l78.36-39.33Z" fill="#fff" fill-rule="evenodd"/><polygon points="968.48 1128.04 906.24 1159.28 906.24 1149.97 960.42 1122.78 968.48 1128.04" fill="#bfd6dd" fill-rule="evenodd"/><polygon points="968.48 992.3 968.48 1128.04 960.42 1122.78 960.42 996.34 968.48 992.3" fill="#7daab5" fill-rule="evenodd"/><polygon points="960.42 996.34 960.42 1122.78 906.24 1149.97 906.24 1023.53 960.42 996.34" fill="#d76710" fill-rule="evenodd"/><polygon points="946.27 1063.93 946.27 1003.44 906.24 1023.53 946.27 1063.93" fill="#ef7a00" fill-rule="evenodd"/><polygon points="906.24 1032.5 940.34 1066.92 934.4 1069.9 906.24 1041.82 906.24 1032.5" fill="#ef7a00" fill-rule="evenodd"/><polygon points="952.36 1117.52 952.36 1000.39 960.42 996.34 960.42 1122.78 906.24 1149.97 906.24 1140.66 952.36 1117.52" fill="#004c8e" fill-rule="evenodd"/><polygon points="906.24 1084.03 960.42 1056.84 965.27 1059.97 906.24 1089.59 906.24 1084.03" fill="#bfd6dd" fill-rule="evenodd"/><polygon points="906.24 1089.59 965.27 1059.97 965.27 1064.93 906.24 1094.55 906.24 1089.59" fill="#f1f6f8" fill-rule="evenodd"/><polygon points="560.1 701.04 623.08 725.63 623.08 713.18 571.84 693.32 560.1 701.04" fill="#bfd6dd" fill-rule="evenodd"/><polygon points="560.12 615.7 560.1 701.04 571.84 693.32 571.86 620.43 560.12 615.7" fill="#fff" fill-rule="evenodd"/><polygon points="571.86 620.43 571.84 693.32 623.08 713.18 623.1 640.3 571.86 620.43" fill="#d76710" fill-rule="evenodd"/><polygon points="585.22 682.84 585.24 625.62 623.1 640.3 585.22 682.84" fill="#ef7a00" fill-rule="evenodd"/><polygon points="623.1 648.78 590.84 685.02 596.46 687.19 623.09 657.6 623.1 648.78" fill="#ef7a00" fill-rule="evenodd"/><polygon points="579.46 687.47 579.49 623.38 571.86 620.43 571.84 693.32 623.08 713.18 623.08 704.38 579.46 687.47" fill="#004c8e" fill-rule="evenodd"/><path d="M1245.71,855.8V991.54l-62.24,31.24V887l62.24-31.23Zm8.06-13.36h0l-78.36,39.32v154.36l78.36-39.32Z" fill="#fff" fill-rule="evenodd"/><polygon points="1245.71 991.54 1183.47 1022.78 1183.47 1013.47 1237.65 986.28 1245.71 991.54" fill="#bfd6dd" fill-rule="evenodd"/><polygon points="1245.71 855.8 1245.71 991.54 1237.65 986.28 1237.65 859.84 1245.71 855.8" fill="#7daab5" fill-rule="evenodd"/><polygon points="1237.65 859.84 1237.65 986.28 1183.47 1013.47 1183.47 887.03 1237.65 859.84" fill="#d76710" fill-rule="evenodd"/><polygon points="1223.51 927.43 1223.51 866.94 1183.47 887.03 1223.51 927.43" fill="#ef7a00" fill-rule="evenodd"/><polygon points="1183.47 896 1217.57 930.42 1211.63 933.4 1183.47 905.32 1183.47 896" fill="#ef7a00" fill-rule="evenodd"/><polygon points="1229.59 981.02 1229.59 863.89 1237.65 859.84 1237.65 986.28 1183.47 1013.47 1183.47 1004.16 1229.59 981.02" fill="#004c8e" fill-rule="evenodd"/><polygon points="1183.47 947.52 1237.65 920.34 1242.5 923.47 1183.47 953.09 1183.47 947.52" fill="#bfd6dd" fill-rule="evenodd"/><polygon points="1183.47 953.09 1242.5 923.47 1242.5 928.43 1183.47 958.05 1183.47 953.09" fill="#f1f6f8" fill-rule="evenodd"/><path d="M1058.61,524a3.06,3.06,0,0,1-3.06-3.06V502.51a3.06,3.06,0,1,1,6.13,0V520.9a3.06,3.06,0,0,1-3.06,3.06Zm0-30.64h0a3.06,3.06,0,0,1-3.06-3.06V471.87a3.06,3.06,0,1,1,6.13,0v18.38a3.06,3.06,0,0,1-3.06,3.06Zm0-30.64h0a3.06,3.06,0,0,1-3.06-3.06V441.23a3.06,3.06,0,1,1,6.13,0v18.38a3.06,3.06,0,0,1-3.06,3.06Zm0-30.64h0a3.06,3.06,0,0,1-3.06-3.06V410.59a3.06,3.06,0,0,1,6.13,0V429a3.06,3.06,0,0,1-3.06,3.06Zm0-30.64h0a3.06,3.06,0,0,1-3.06-3.06V380a3.06,3.06,0,0,1,6.13,0v18.38a3.06,3.06,0,0,1-3.06,3.06Zm0-30.64h0a3.06,3.06,0,0,1-3.06-3.06V349.32a3.06,3.06,0,1,1,6.13,0V367.7a3.06,3.06,0,0,1-3.06,3.06Zm0-30.64h0a3.06,3.06,0,0,1-3.06-3.06V318.68a3.06,3.06,0,0,1,6.13,0v18.38a3.06,3.06,0,0,1-3.06,3.06Zm0-30.64h0a3.06,3.06,0,0,1-3.06-3.06V288a3.06,3.06,0,1,1,6.13,0v18.38a3.06,3.06,0,0,1-3.06,3.06Zm0-30.64h0a3.06,3.06,0,0,1-3.06-3.06V257.4a3.06,3.06,0,0,1,6.13,0v18.38a3.06,3.06,0,0,1-3.06,3.06Zm0-30.64h0a3.06,3.06,0,0,1-3.06-3.06V226.76a3.06,3.06,0,0,1,6.13,0v18.38a3.06,3.06,0,0,1-3.06,3.06Zm0-30.64h0a3.06,3.06,0,0,1-3.06-3.06V196.12a3.06,3.06,0,0,1,6.13,0V214.5a3.06,3.06,0,0,1-3.06,3.06Zm0-30.64h0a3.06,3.06,0,0,1-3.06-3.06V165.48a3.06,3.06,0,1,1,6.13,0v18.38a3.06,3.06,0,0,1-3.06,3.06Zm0-30.64h0a3.06,3.06,0,0,1-3.06-3.06V134.84a3.06,3.06,0,0,1,6.13,0v18.38A3.06,3.06,0,0,1,1058.61,156.29Z" fill="#fff" fill-rule="evenodd"/><path d="M228.17,464.6a3.06,3.06,0,0,1-3.06-3.06v-9.19a3.06,3.06,0,0,1,6.13,0v9.19A3.06,3.06,0,0,1,228.17,464.6Z" fill="#fff" fill-rule="evenodd"/><path d="M228.17,904.77a3.06,3.06,0,0,1-3.06-3.06V882.84a3.06,3.06,0,1,1,6.13,0V901.7a3.06,3.06,0,0,1-3.06,3.06Zm0-31.44h0a3.06,3.06,0,0,1-3.06-3.06V851.4a3.06,3.06,0,1,1,6.13,0v18.86a3.06,3.06,0,0,1-3.06,3.06Zm0-31.44h0a3.06,3.06,0,0,1-3.06-3.06V820a3.06,3.06,0,1,1,6.13,0v18.87a3.06,3.06,0,0,1-3.06,3.06Zm0-31.44h0a3.06,3.06,0,0,1-3.06-3.06V788.52a3.06,3.06,0,1,1,6.13,0v18.86a3.06,3.06,0,0,1-3.06,3.06Zm0-31.44h0a3.06,3.06,0,0,1-3.06-3.06V757.08a3.06,3.06,0,1,1,6.13,0v18.86a3.06,3.06,0,0,1-3.06,3.06Zm0-31.44h0a3.06,3.06,0,0,1-3.06-3.06V725.64a3.06,3.06,0,1,1,6.13,0V744.5a3.06,3.06,0,0,1-3.06,3.06Zm0-31.44h0a3.06,3.06,0,0,1-3.06-3.06V694.19a3.06,3.06,0,1,1,6.13,0v18.86a3.06,3.06,0,0,1-3.06,3.06Zm0-31.44h0a3.06,3.06,0,0,1-3.06-3.06V662.75a3.06,3.06,0,1,1,6.13,0v18.87a3.06,3.06,0,0,1-3.06,3.06Zm0-31.44h0a3.06,3.06,0,0,1-3.06-3.06V631.32a3.06,3.06,0,1,1,6.13,0v18.86a3.06,3.06,0,0,1-3.06,3.06Zm0-31.44h0a3.06,3.06,0,0,1-3.06-3.06V599.87a3.06,3.06,0,0,1,6.13,0v18.86a3.06,3.06,0,0,1-3.06,3.06Zm0-31.44h0a3.06,3.06,0,0,1-3.06-3.06V568.43a3.06,3.06,0,1,1,6.13,0v18.86a3.06,3.06,0,0,1-3.06,3.06Zm0-31.44h0a3.06,3.06,0,0,1-3.06-3.06V537a3.06,3.06,0,1,1,6.13,0v18.86a3.06,3.06,0,0,1-3.06,3.06Zm0-31.44h0a3.06,3.06,0,0,1-3.06-3.06V505.55a3.06,3.06,0,1,1,6.13,0v18.86a3.06,3.06,0,0,1-3.06,3.06Zm0-31.44h0a3.06,3.06,0,0,1-3.06-3.06V474.11a3.06,3.06,0,1,1,6.13,0V493A3.06,3.06,0,0,1,228.17,496Z" fill="#fff" fill-rule="evenodd"/><path d="M236,931.4a3.09,3.09,0,0,1-1.62-.46l-9.24-5.76V914.28a3.06,3.06,0,1,1,6.13,0v7.49l6.36,4A3.07,3.07,0,0,1,236,931.4Z" fill="#fff" fill-rule="evenodd"/><path d="M264.07,948.91a3,3,0,0,1-1.62-.47l-16.86-10.51a3.06,3.06,0,0,1,3.25-5.2l16.86,10.51a3.06,3.06,0,0,1-1.62,5.66Z" fill="#fff" fill-rule="evenodd"/><path d="M283.12,960.77a3,3,0,0,1-1.62-.47l-7.8-4.87a3.06,3.06,0,0,1,3.24-5.19l7.8,4.87a3.06,3.06,0,0,1-1.62,5.66Z" fill="#fff" fill-rule="evenodd"/><path d="M906.12,1308.82a3.06,3.06,0,0,1-3.06-3.06v-9.19a3.06,3.06,0,1,1,6.13,0v9.19A3.06,3.06,0,0,1,906.12,1308.82Z" fill="#fff" fill-rule="evenodd"/><path d="M906.12,1376.16a3.06,3.06,0,0,1-3.06-3.06v-20.2a3.06,3.06,0,1,1,6.13,0v20.2a3.06,3.06,0,0,1-3.06,3.06Zm0-33.67h0a3.06,3.06,0,0,1-3.06-3.06v-20.2a3.06,3.06,0,1,1,6.13,0v20.2A3.06,3.06,0,0,1,906.12,1342.49Z" fill="#fff" fill-rule="evenodd"/><path d="M898.2,1403.48a3.07,3.07,0,0,1-1.56-5.71l6.41-3.77v-7.44a3.06,3.06,0,1,1,6.13,0v10.95l-9.43,5.55A3.06,3.06,0,0,1,898.2,1403.48Z" fill="#fff" fill-rule="evenodd"/><path d="M637.09,1557a3.07,3.07,0,0,1-1.56-5.71l15.66-9.22a3.07,3.07,0,0,1,3.11,5.28l-15.66,9.22a3.06,3.06,0,0,1-1.56.42Zm26.11-15.36h0a3.07,3.07,0,0,1-1.55-5.71l15.67-9.22a3.07,3.07,0,0,1,3.11,5.28l-15.67,9.22a3.07,3.07,0,0,1-1.56.42Zm26.11-15.36h0a3.07,3.07,0,0,1-1.55-5.71l15.67-9.21a3.07,3.07,0,0,1,3.11,5.28l-15.67,9.22a3.05,3.05,0,0,1-1.56.42ZM715.42,1511h0a3.07,3.07,0,0,1-1.56-5.71l15.67-9.22a3.07,3.07,0,0,1,3.11,5.28L717,1510.56a3,3,0,0,1-1.56.42Zm26.11-15.36h0a3.07,3.07,0,0,1-1.56-5.71l15.67-9.21a3.07,3.07,0,0,1,3.11,5.28l-15.67,9.21a3.05,3.05,0,0,1-1.56.42Zm26.11-15.36h0a3.07,3.07,0,0,1-1.56-5.71l15.67-9.21a3.07,3.07,0,0,1,3.11,5.28l-15.67,9.21a3.05,3.05,0,0,1-1.56.42Zm26.12-15.36h0a3.07,3.07,0,0,1-1.56-5.71l15.66-9.21a3.07,3.07,0,0,1,3.11,5.28l-15.66,9.21a3,3,0,0,1-1.56.42Zm26.11-15.36h0a3.07,3.07,0,0,1-1.55-5.71l15.67-9.21a3.07,3.07,0,0,1,3.11,5.28l-15.67,9.21a3.06,3.06,0,0,1-1.56.42ZM846,1434.2h0a3.07,3.07,0,0,1-1.55-5.71l15.67-9.21a3.07,3.07,0,0,1,3.11,5.28l-15.67,9.21a3.07,3.07,0,0,1-1.56.42Zm26.11-15.36h0a3.07,3.07,0,0,1-1.55-5.71l15.67-9.21a3.07,3.07,0,0,1,3.11,5.28l-15.67,9.21A3.07,3.07,0,0,1,872.08,1418.84Z" fill="#fff" fill-rule="evenodd"/><path d="M618.74,1568.33l-9.52-5.48a3.06,3.06,0,1,1,3.06-5.31l6.42,3.7,6.39-3.76a3.07,3.07,0,0,1,3.11,5.28Z" fill="#fff" fill-rule="evenodd"/><path d="M598.7,1556.29a3.07,3.07,0,0,1-1.53-.41l-18.08-10.44a3.06,3.06,0,0,1,3.06-5.31l18.08,10.44a3.06,3.06,0,0,1-1.53,5.72Zm-30.14-17.4h0a3.08,3.08,0,0,1-1.53-.41L548.94,1528a3.06,3.06,0,0,1,3.06-5.31l18.08,10.44a3.06,3.06,0,0,1-1.53,5.72Z" fill="#fff" fill-rule="evenodd"/><path d="M538.42,1521.5a3.07,3.07,0,0,1-1.53-.41l-8-4.6a3.06,3.06,0,0,1,3.06-5.31l8,4.6a3.07,3.07,0,0,1-1.53,5.72Z" fill="#fff" fill-rule="evenodd"/><path d="M1059.11,1217.86a3.06,3.06,0,0,1,1.53.41l8,4.6a3.06,3.06,0,1,1-3.06,5.31l-8-4.6a3.06,3.06,0,0,1,1.53-5.72Z" fill="#fff" fill-rule="evenodd"/><path d="M1076.3,1227.79a3.08,3.08,0,0,1,1.53.41l13.84,8a3.06,3.06,0,0,1-3.06,5.31l-13.84-8a3.07,3.07,0,0,1,1.53-5.72Zm23.07,13.32h0a3.07,3.07,0,0,1,1.53.41l13.84,8a3.06,3.06,0,0,1-3.06,5.31l-13.84-8a3.07,3.07,0,0,1,1.53-5.72Zm23.08,13.32h0a3.07,3.07,0,0,1,1.53.41l13.85,8a3.06,3.06,0,1,1-3.06,5.31l-13.85-8a3.06,3.06,0,0,1,1.53-5.72Z" fill="#fff" fill-rule="evenodd"/><path d="M1161.41,1267.7a3.07,3.07,0,0,1,1.54,5.71l-9.48,5.52-9.48-5.47a3.06,3.06,0,0,1,3.06-5.31l6.4,3.7,6.4-3.73A3.08,3.08,0,0,1,1161.41,1267.7Z" fill="#fff" fill-rule="evenodd"/><path d="M1407.25,1124.37a3.06,3.06,0,0,1,1.54,5.71l-16.39,9.56a3.07,3.07,0,0,1-3.09-5.3l16.39-9.56a3.07,3.07,0,0,1,1.54-.42Zm-27.32,15.93h0a3.07,3.07,0,0,1,1.54,5.71l-16.39,9.55a3.07,3.07,0,0,1-3.09-5.3l16.39-9.55a3.09,3.09,0,0,1,1.54-.41Zm-27.31,15.92h0a3.07,3.07,0,0,1,1.54,5.71l-16.39,9.56a3.06,3.06,0,0,1-3.09-5.29l16.39-9.56a3.07,3.07,0,0,1,1.54-.42Zm-27.32,15.93h0a3.07,3.07,0,0,1,1.54,5.71l-16.38,9.55a3.07,3.07,0,0,1-3.09-5.3l16.39-9.55a3.08,3.08,0,0,1,1.54-.42ZM1298,1188.07h0a3.07,3.07,0,0,1,1.54,5.71l-16.39,9.56a3.07,3.07,0,0,1-3.09-5.3l16.39-9.56a3.06,3.06,0,0,1,1.54-.42ZM1270.68,1204h0a3.07,3.07,0,0,1,1.54,5.71l-16.39,9.55a3.07,3.07,0,0,1-3.09-5.3l16.39-9.55a3.07,3.07,0,0,1,1.54-.42Zm-27.32,15.92h0a3.07,3.07,0,0,1,1.54,5.71l-16.39,9.56a3.06,3.06,0,0,1-3.09-5.29l16.39-9.56a3.06,3.06,0,0,1,1.54-.42ZM1216,1235.85h0a3.07,3.07,0,0,1,1.54,5.71l-16.39,9.55a3.07,3.07,0,0,1-3.09-5.3l16.39-9.55a3.07,3.07,0,0,1,1.54-.42Zm-27.31,15.93h0a3.06,3.06,0,0,1,1.55,5.71l-16.39,9.56a3.07,3.07,0,0,1-3.09-5.3l16.39-9.56A3.07,3.07,0,0,1,1188.73,1251.77Z" fill="#fff" fill-rule="evenodd"/><path d="M1426.12,1113.37a3.07,3.07,0,0,1,1.55,5.71l-7.94,4.63a3.07,3.07,0,0,1-3.09-5.3l7.94-4.63A3.07,3.07,0,0,1,1426.12,1113.37Z" fill="#fff" fill-rule="evenodd"/><path d="M256.11,1164.56c18.84,10.88,49.38,10.88,68.22,0s18.84-28.51,0-39.39-49.39-10.88-68.23,0S237.27,1153.68,256.11,1164.56Z" fill-rule="evenodd" opacity="0.15" style="mix-blend-mode:multiply"/><path d="M225.11,1083.63a69.07,69.07,0,0,0,138.14,0c0-38.15-30.93-137.6-69.07-137.6S225.11,1045.49,225.11,1083.63Z" fill="#093b66" fill-rule="evenodd"/><ellipse cx="321.04" cy="1021.69" rx="12.62" ry="38.15" transform="translate(-249.85 115.6) rotate(-14.77)" fill="#0065b1"/><path d="M344.65,1154.75c12.09,7,31.69,7,43.78,0s12.09-18.3,0-25.28-31.69-7-43.78,0S332.56,1147.77,344.65,1154.75Z" fill-rule="evenodd" opacity="0.15" style="mix-blend-mode:multiply"/><path d="M324.75,1102.82a44.32,44.32,0,1,0,88.65,0c0-24.48-19.85-88.29-44.32-88.29S324.75,1078.34,324.75,1102.82Z" fill="#0052a4" fill-rule="evenodd"/><ellipse cx="386.31" cy="1063.07" rx="8.1" ry="24.48" transform="translate(-258.26 133.61) rotate(-14.77)" fill="#0065b1"/><path d="M1346.73,1125.35c-14.92,8.61-39.1,8.61-54,0s-14.92-22.57,0-31.19,39.1-8.61,54,0S1361.65,1116.73,1346.73,1125.35Z" fill-rule="evenodd" opacity="0.15" style="mix-blend-mode:multiply"/><path d="M1371.28,1061.27a54.69,54.69,0,1,1-109.37,0c0-30.2,24.49-108.94,54.69-108.94S1371.28,1031.07,1371.28,1061.27Z" fill="#0052a4" fill-rule="evenodd"/><ellipse cx="1295.33" cy="1012.23" rx="30.21" ry="9.99" transform="translate(-13.69 2006.69) rotate(-75.23)" fill="#0065b1"/><path d="M855.91,1343.26c-12.8,7.39-33.55,7.39-46.35,0s-12.8-19.37,0-26.76,33.55-7.39,46.35,0S868.71,1335.87,855.91,1343.26Z" fill-rule="evenodd" opacity="0.15" style="mix-blend-mode:multiply"/><circle cx="832.73" cy="1296.6" r="43.35" fill="#0052a4"/><circle cx="820.72" cy="1284.58" r="17.15" fill="#0065b1"/><path d="M1496.5,1133.27a59,59,0,1,0-59-59A59.11,59.11,0,0,0,1496.5,1133.27Z" fill="#fff" fill-rule="evenodd"/><path d="M1549.78,1021.67h0a10.5,10.5,0,0,0-15.34,2.62l-38.55,57.28-22.09-17.32a10.5,10.5,0,0,0-15.34,2.62h0a12.51,12.51,0,0,0,2.43,16.55l31,24.29h0a10.5,10.5,0,0,0,15.34-2.62h0l45-66.86A12.51,12.51,0,0,0,1549.78,1021.67Z" fill="#0065b1"/><path d="M1550,1047.8l-9.4,13.75a45.83,45.83,0,1,1-18.35-24.92l7.53-11.65a59.55,59.55,0,1,0,21.87,26.42Q1550.91,1049.57,1550,1047.8Z" fill="#0065b1"/><path d="M467.5,1521.27a59,59,0,1,0-59-59A59.11,59.11,0,0,0,467.5,1521.27Z" fill="#fff" fill-rule="evenodd"/><path d="M520.78,1409.67h0a10.5,10.5,0,0,0-15.34,2.62l-38.55,57.28-22.09-17.32a10.5,10.5,0,0,0-15.34,2.62h0a12.51,12.51,0,0,0,2.43,16.55l31,24.29h0a10.5,10.5,0,0,0,15.34-2.62h0l45-66.86A12.51,12.51,0,0,0,520.78,1409.67Z" fill="#0065b1"/><path d="M521,1435.8l-9.4,13.75a45.83,45.83,0,1,1-18.35-24.92L500.8,1413a59.55,59.55,0,1,0,21.87,26.42Q521.91,1437.57,521,1435.8Z" fill="#0065b1"/><path d="M229,436.29a59,59,0,1,0-59-59A59.11,59.11,0,0,0,229,436.29Z" fill="#fff" fill-rule="evenodd"/><path d="M282.32,324.69h0A10.5,10.5,0,0,0,267,327.31l-38.55,57.28-22.09-17.32A10.5,10.5,0,0,0,191,369.89h0a12.51,12.51,0,0,0,2.43,16.55l31,24.29h0a10.5,10.5,0,0,0,15.34-2.62h0l45-66.86A12.51,12.51,0,0,0,282.32,324.69Z" fill="#0065b1"/><path d="M282.56,350.82l-9.4,13.75a45.83,45.83,0,1,1-18.35-24.92L262.35,328a59.55,59.55,0,1,0,21.87,26.42Q283.45,352.59,282.56,350.82Z" fill="#0065b1"/><path d="M1060.53,118.28a59,59,0,1,0-59-59A59.11,59.11,0,0,0,1060.53,118.28Z" fill="#fff" fill-rule="evenodd"/><path d="M1113.81,6.68h0a10.5,10.5,0,0,0-15.34,2.62l-38.55,57.28-22.09-17.32a10.5,10.5,0,0,0-15.34,2.62h0a12.51,12.51,0,0,0,2.43,16.55l31,24.29h0a10.5,10.5,0,0,0,15.34-2.62h0l45-66.86A12.51,12.51,0,0,0,1113.81,6.68Z" fill="#0065b1"/><path d="M1114,32.82l-9.4,13.75a45.83,45.83,0,1,1-18.35-24.92L1093.83,10a59.55,59.55,0,1,0,21.87,26.42Q1114.93,34.58,1114,32.82Z" fill="#0065b1"/><path d="M498,950.82a3.06,3.06,0,0,1-3.06-3.06v-9.19a3.06,3.06,0,1,1,6.13,0v9.19A3.06,3.06,0,0,1,498,950.82Z" fill="#fff" fill-rule="evenodd"/><path d="M498,1018.17a3.06,3.06,0,0,1-3.06-3.06V994.9a3.06,3.06,0,1,1,6.13,0v20.2a3.06,3.06,0,0,1-3.06,3.06Zm0-33.67h0a3.06,3.06,0,0,1-3.06-3.06v-20.2a3.06,3.06,0,1,1,6.13,0v20.2A3.06,3.06,0,0,1,498,984.49Z" fill="#fff" fill-rule="evenodd"/><path d="M490.07,1045.49a3.07,3.07,0,0,1-1.56-5.71l6.41-3.77v-7.44a3.06,3.06,0,1,1,6.13,0v10.95l-9.43,5.55A3.06,3.06,0,0,1,490.07,1045.49Z" fill="#fff" fill-rule="evenodd"/><path d="M229,1199a3.07,3.07,0,0,1-1.56-5.71l15.66-9.22a3.07,3.07,0,0,1,3.11,5.28l-15.66,9.22a3.06,3.06,0,0,1-1.56.42Zm26.11-15.36h0a3.07,3.07,0,0,1-1.55-5.71l15.67-9.22a3.07,3.07,0,0,1,3.11,5.28l-15.67,9.22a3.07,3.07,0,0,1-1.56.42Zm26.11-15.36h0a3.07,3.07,0,0,1-1.55-5.71l15.67-9.21a3.07,3.07,0,0,1,3.11,5.28l-15.67,9.22a3.05,3.05,0,0,1-1.56.42ZM307.29,1153h0a3.07,3.07,0,0,1-1.56-5.71l15.67-9.22a3.07,3.07,0,0,1,3.11,5.28l-15.67,9.22a3,3,0,0,1-1.56.42Zm26.11-15.36h0a3.07,3.07,0,0,1-1.56-5.71l15.67-9.21a3.07,3.07,0,0,1,3.11,5.28L335,1137.2a3.05,3.05,0,0,1-1.56.42Zm26.11-15.36h0a3.07,3.07,0,0,1-1.56-5.71l15.67-9.21a3.07,3.07,0,0,1,3.11,5.28l-15.67,9.21a3.05,3.05,0,0,1-1.56.42Zm26.12-15.36h0a3.07,3.07,0,0,1-1.56-5.71l15.66-9.21a3.07,3.07,0,0,1,3.11,5.28l-15.66,9.21a3,3,0,0,1-1.56.42Zm26.11-15.36h0a3.07,3.07,0,0,1-1.55-5.71l15.67-9.21a3.07,3.07,0,0,1,3.11,5.28l-15.67,9.21a3.06,3.06,0,0,1-1.56.42Zm26.11-15.36h0a3.07,3.07,0,0,1-1.55-5.71l15.67-9.21a3.07,3.07,0,0,1,3.11,5.28l-15.67,9.21a3.07,3.07,0,0,1-1.56.42ZM464,1060.84h0a3.07,3.07,0,0,1-1.55-5.71l15.67-9.21a3.07,3.07,0,0,1,3.11,5.28l-15.67,9.21A3.07,3.07,0,0,1,464,1060.84Z" fill="#fff" fill-rule="evenodd"/><path d="M210.61,1210.33l-9.52-5.48a3.06,3.06,0,1,1,3.06-5.31l6.42,3.7,6.39-3.76a3.07,3.07,0,0,1,3.11,5.28Z" fill="#fff" fill-rule="evenodd"/><path d="M190.57,1198.3a3.07,3.07,0,0,1-1.53-.41L171,1187.45a3.06,3.06,0,0,1,3.06-5.31l18.08,10.44a3.06,3.06,0,0,1-1.53,5.72Zm-30.14-17.4h0a3.08,3.08,0,0,1-1.53-.41L140.81,1170a3.06,3.06,0,0,1,3.06-5.31L162,1175.18a3.06,3.06,0,0,1-1.53,5.72Z" fill="#fff" fill-rule="evenodd"/><path d="M130.29,1163.5a3.07,3.07,0,0,1-1.53-.41l-8-4.6a3.06,3.06,0,0,1,3.06-5.31l8,4.6a3.07,3.07,0,0,1-1.53,5.72Z" fill="#fff" fill-rule="evenodd"/><path d="M59.38,1163.27a59,59,0,1,0-59-59A59.11,59.11,0,0,0,59.38,1163.27Z" fill="#fff" fill-rule="evenodd"/><path d="M112.65,1051.67h0a10.5,10.5,0,0,0-15.34,2.62l-38.55,57.28-22.09-17.32a10.5,10.5,0,0,0-15.34,2.62h0a12.51,12.51,0,0,0,2.43,16.55l31,24.29h0a10.5,10.5,0,0,0,15.34-2.62h0l45-66.86A12.51,12.51,0,0,0,112.65,1051.67Z" fill="#0065b1"/><path d="M112.89,1077.8l-9.4,13.75a45.83,45.83,0,1,1-18.35-24.92L92.68,1055a59.55,59.55,0,1,0,21.87,26.42Q113.78,1079.57,112.89,1077.8Z" fill="#0065b1"/></g></svg>