<svg xmlns="http://www.w3.org/2000/svg" viewBox="0 0 1484.63 1568.33"><title>Asset 1</title><g style="isolation:isolate"><polygon points="918.69 875.1 735.24 991.1 562.61 846.02 121.49 1085.06 682.45 1316.8 995.52 1316.8 1484.63 1071.05 918.69 875.1" fill="#75b2e2" fill-rule="evenodd" opacity="0.5"/><polygon points="562.61 846.13 121.49 1085.2 682.45 1316.93 1118.15 1100.68 562.61 846.13" fill="#9e9d9f" fill-rule="evenodd"/><polygon points="362.73 315.3 98.34 751 682.45 992.34 946.84 556.64 362.73 315.3" fill="#f6a800" fill-rule="evenodd"/><polygon points="682.45 1316.93 121.49 1085.2 121.49 760.62 682.45 992.34 682.45 1316.93" fill="#0065b1" fill-rule="evenodd"/><polygon points="946.84 556.64 682.45 992.34 709.73 978.86 1115.05 778.54 1146.72 762.89 946.84 556.64" fill="#f08100" fill-rule="evenodd"/><polygon points="940.6 598.65 1117.55 776.41 1118.15 776.11 1118.15 777.01 1118.15 1100.68 682.45 1316.93 682.45 992.34 709.78 978.78 940.6 598.65" fill="#093b66" fill-rule="evenodd"/><polygon points="407.68 554.59 500.47 701.9 509.07 699.22 511.56 697.69 511.95 697.69 610.65 640.87 494.15 775.31 363.11 724.47 363.11 594.95 363.11 587.11 407.68 554.59" fill="#0065b1" fill-rule="evenodd"/><polygon points="498.17 698.64 500.47 701.9 509.07 699.22 511.56 697.69 511.95 697.69 610.65 640.87 596.32 661.35 498.17 769.96 494.15 775.31 494.15 712.04 494.15 692.34 498.17 698.64" fill="#093b66" fill-rule="evenodd"/><polygon points="508.62 699.6 508.24 699.6 506.9 697.68 411.25 545.6 408.37 541.2 562.38 452.43 565.25 457.03 566.4 459.51 662.04 611.03 508.62 699.6" fill="#f08100" fill-rule="evenodd"/><polygon points="407.68 554.59 500.47 701.9 509.07 699.22 408.82 540.82 333.26 597.63 339 604.9 407.68 554.59" fill="#e06c07" fill-rule="evenodd"/><path d="M968.42,910.33,848,969.71l.45,264.86,120.39-59.38-.45-264.86ZM977.74,895h0l.44,275.78-139,68.37-.44-275.67Z" fill="#fff" fill-rule="evenodd"/><polygon points="968.88 1175.19 848.48 1234.57 848.48 1223.81 959.55 1168.98 968.88 1175.19" fill="#004c8e" fill-rule="evenodd"/><polygon points="968.42 910.33 968.88 1175.19 959.55 1168.98 959.1 914.88 968.42 910.33" fill="#004c8e" fill-rule="evenodd"/><polygon points="959.55 914.55 959.55 1168.98 848.48 1223.91 848.03 969.71 959.55 914.55" fill="#ef7a00" fill-rule="evenodd"/><path d="M871.31,1086.06a10.32,10.32,0,0,1,4.13-4,4.17,4.17,0,0,1,4.21-.08l-7.4-4.93s0,0,0,0a1.29,1.29,0,0,0-.3-.18l-.3-.14-.33-.09-.33-.09-.39,0a2.51,2.51,0,0,0-.43,0c-.18,0-.35,0-.53.05s-.47.11-.71.19a5.85,5.85,0,0,0-.85.34,8.62,8.62,0,0,0-2,1.33,6.65,6.65,0,0,0-.63.65,7.08,7.08,0,0,0-.5.53l-.39.49c-.12.17-.22.34-.33.5a3.13,3.13,0,0,0-.32.46v0l0,0c-.08.15-.18.27-.26.43s-.18.32-.26.48l-.23.49a3.87,3.87,0,0,1-.22.49,5,5,0,0,0-.19.55l-.18.58c-.06.23-.12.44-.18.65s-.09.56-.13.81a11.46,11.46,0,0,0-.08,1.15,4.49,4.49,0,0,0,1.75,3.9l7.4,5a4.46,4.46,0,0,1-1.73-3.91,11,11,0,0,1,1.71-5.64Z" fill="#d76710" fill-rule="evenodd"/><path d="M875.44,1082.06c3.28-1.61,5.9.11,5.92,3.9a11.67,11.67,0,0,1-5.88,9.64c-3.21,1.58-5.9-.19-5.9-3.9A11.56,11.56,0,0,1,875.44,1082.06Z" fill="#87bee7" fill-rule="evenodd"/><path d="M861.14,1204.06l-.26-93.37L948,1068.16l.27,93.4-87.17,42.51Zm-.63-224.77.36,123.4L948,1060.17l-.35-123.41-87.16,42.53Zm93.37,86,0-8L953.49,927l-98.9,48.24.4,130.34v8l.29,100.32,98.88-48.25Z" fill="#d76710" fill-rule="evenodd"/><polygon points="933.84 835.6 870.86 866.75 870.86 854.3 922.1 829.1 933.84 835.6" fill="#bfd6dd" fill-rule="evenodd"/><polygon points="933.82 750.26 933.84 835.6 922.1 829.1 922.08 756.21 933.82 750.26" fill="#fff" fill-rule="evenodd"/><polygon points="922.08 756.21 922.1 829.1 870.86 854.3 870.84 781.41 922.08 756.21" fill="#d76710" fill-rule="evenodd"/><polygon points="908.72 820.02 908.7 762.79 870.84 781.41 908.72 820.02" fill="#ef7a00" fill-rule="evenodd"/><polygon points="870.84 789.9 903.1 822.78 897.48 825.54 870.85 798.71 870.84 789.9" fill="#ef7a00" fill-rule="evenodd"/><polygon points="914.47 824.04 914.45 759.96 922.08 756.21 922.1 829.1 870.86 854.3 870.86 845.5 914.47 824.04" fill="#004c8e" fill-rule="evenodd"/><path d="M462.47,990.66v92.8l83.91,35.27v-92.8l-83.91-35.27Zm-8.61-13.26h0L555,1019.31V1132l-101.14-41.91Z" fill="#fff" fill-rule="evenodd"/><polygon points="462.47 1083.46 546.39 1118.73 546.39 1108.79 471.08 1076.84 462.47 1083.46" fill="#bfd6dd" fill-rule="evenodd"/><polygon points="462.47 990.66 462.47 1083.46 471.08 1076.84 471.08 993.98 462.47 990.66" fill="#7daab5" fill-rule="evenodd"/><polygon points="471.08 993.98 471.08 1076.84 546.39 1108.79 546.39 1025.93 471.08 993.98" fill="#d76710" fill-rule="evenodd"/><polygon points="486.19 1064.41 486.19 999.81 546.39 1025.93 486.19 1064.41" fill="#ef7a00" fill-rule="evenodd"/><polygon points="546.39 1035.51 492.53 1066.85 498.87 1069.3 546.39 1045.46 546.39 1035.51" fill="#ef7a00" fill-rule="evenodd"/><polygon points="479.69 1070.22 479.69 997.3 471.08 993.98 471.08 1076.84 546.39 1108.79 546.39 1098.85 479.69 1070.22" fill="#004c8e" fill-rule="evenodd"/><path d="M238,907v92.8l83.91,35.27v-92.8L238,907Zm-8.61-13.26h0l101.14,41.91v112.68L229.37,1006.4Z" fill="#fff" fill-rule="evenodd"/><polygon points="237.99 999.78 321.9 1035.05 321.9 1025.11 246.59 993.16 237.99 999.78" fill="#bfd6dd" fill-rule="evenodd"/><polygon points="237.99 906.98 237.99 999.78 246.59 993.16 246.59 910.3 237.99 906.98" fill="#7daab5" fill-rule="evenodd"/><polygon points="246.59 910.3 246.59 993.16 321.9 1025.11 321.9 942.25 246.59 910.3" fill="#d76710" fill-rule="evenodd"/><polygon points="261.7 980.73 261.7 916.13 321.9 942.25 261.7 980.73" fill="#ef7a00" fill-rule="evenodd"/><polygon points="321.9 951.84 268.04 983.18 274.38 985.62 321.9 961.78 321.9 951.84" fill="#ef7a00" fill-rule="evenodd"/><polygon points="255.2 986.54 255.2 913.62 246.59 910.3 246.59 993.16 321.9 1025.11 321.9 1015.17 255.2 986.54" fill="#004c8e" fill-rule="evenodd"/><path d="M798.81,992.3V1128l-62.24,31.23V1023.53l62.24-31.23Zm8.06-13.35h0l-78.36,39.32v154.36l78.36-39.33Z" fill="#fff" fill-rule="evenodd"/><polygon points="798.81 1128.04 736.57 1159.28 736.57 1149.97 790.75 1122.78 798.81 1128.04" fill="#bfd6dd" fill-rule="evenodd"/><polygon points="798.81 992.3 798.81 1128.04 790.75 1122.78 790.75 996.34 798.81 992.3" fill="#7daab5" fill-rule="evenodd"/><polygon points="790.75 996.34 790.75 1122.78 736.57 1149.97 736.57 1023.53 790.75 996.34" fill="#d76710" fill-rule="evenodd"/><polygon points="776.6 1063.93 776.6 1003.44 736.57 1023.53 776.6 1063.93" fill="#ef7a00" fill-rule="evenodd"/><polygon points="736.57 1032.5 770.67 1066.92 764.73 1069.9 736.57 1041.82 736.57 1032.5" fill="#ef7a00" fill-rule="evenodd"/><polygon points="782.69 1117.52 782.69 1000.39 790.75 996.34 790.75 1122.78 736.57 1149.97 736.57 1140.66 782.69 1117.52" fill="#004c8e" fill-rule="evenodd"/><polygon points="736.57 1084.03 790.75 1056.84 795.6 1059.97 736.57 1089.59 736.57 1084.03" fill="#bfd6dd" fill-rule="evenodd"/><polygon points="736.57 1089.59 795.6 1059.97 795.6 1064.93 736.57 1094.55 736.57 1089.59" fill="#f1f6f8" fill-rule="evenodd"/><polygon points="390.43 701.04 453.41 725.63 453.41 713.18 402.17 693.32 390.43 701.04" fill="#bfd6dd" fill-rule="evenodd"/><polygon points="390.45 615.7 390.43 701.04 402.17 693.32 402.19 620.43 390.45 615.7" fill="#fff" fill-rule="evenodd"/><polygon points="402.19 620.43 402.17 693.32 453.41 713.18 453.43 640.3 402.19 620.43" fill="#d76710" fill-rule="evenodd"/><polygon points="415.55 682.84 415.57 625.62 453.43 640.3 415.55 682.84" fill="#ef7a00" fill-rule="evenodd"/><polygon points="453.43 648.78 421.17 685.02 426.79 687.19 453.42 657.6 453.43 648.78" fill="#ef7a00" fill-rule="evenodd"/><polygon points="409.79 687.47 409.81 623.38 402.19 620.43 402.17 693.32 453.41 713.18 453.41 704.38 409.79 687.47" fill="#004c8e" fill-rule="evenodd"/><path d="M1076,855.8V991.54l-62.24,31.24V887L1076,855.8Zm8.06-13.36h0l-78.36,39.32v154.36l78.36-39.32Z" fill="#fff" fill-rule="evenodd"/><polygon points="1076.04 991.54 1013.8 1022.78 1013.8 1013.47 1067.98 986.28 1076.04 991.54" fill="#bfd6dd" fill-rule="evenodd"/><polygon points="1076.04 855.8 1076.04 991.54 1067.98 986.28 1067.98 859.84 1076.04 855.8" fill="#7daab5" fill-rule="evenodd"/><polygon points="1067.98 859.84 1067.98 986.28 1013.8 1013.47 1013.8 887.03 1067.98 859.84" fill="#d76710" fill-rule="evenodd"/><polygon points="1053.84 927.43 1053.84 866.94 1013.8 887.03 1053.84 927.43" fill="#ef7a00" fill-rule="evenodd"/><polygon points="1013.8 896 1047.9 930.42 1041.96 933.4 1013.8 905.32 1013.8 896" fill="#ef7a00" fill-rule="evenodd"/><polygon points="1059.92 981.02 1059.92 863.89 1067.98 859.84 1067.98 986.28 1013.8 1013.47 1013.8 1004.16 1059.92 981.02" fill="#004c8e" fill-rule="evenodd"/><polygon points="1013.8 947.52 1067.98 920.34 1072.83 923.47 1013.8 953.09 1013.8 947.52" fill="#bfd6dd" fill-rule="evenodd"/><polygon points="1013.8 953.09 1072.83 923.47 1072.83 928.43 1013.8 958.05 1013.8 953.09" fill="#f1f6f8" fill-rule="evenodd"/><path d="M888.94,524a3.06,3.06,0,0,1-3.06-3.06V502.51a3.06,3.06,0,1,1,6.13,0V520.9a3.06,3.06,0,0,1-3.06,3.06Zm0-30.64h0a3.06,3.06,0,0,1-3.06-3.06V471.87a3.06,3.06,0,1,1,6.13,0v18.38a3.06,3.06,0,0,1-3.06,3.06Zm0-30.64h0a3.06,3.06,0,0,1-3.06-3.06V441.23a3.06,3.06,0,1,1,6.13,0v18.38a3.06,3.06,0,0,1-3.06,3.06Zm0-30.64h0a3.06,3.06,0,0,1-3.06-3.06V410.59a3.06,3.06,0,0,1,6.13,0V429a3.06,3.06,0,0,1-3.06,3.06Zm0-30.64h0a3.06,3.06,0,0,1-3.06-3.06V380a3.06,3.06,0,0,1,6.13,0v18.38a3.06,3.06,0,0,1-3.06,3.06Zm0-30.64h0a3.06,3.06,0,0,1-3.06-3.06V349.32a3.06,3.06,0,1,1,6.13,0V367.7a3.06,3.06,0,0,1-3.06,3.06Zm0-30.64h0a3.06,3.06,0,0,1-3.06-3.06V318.68a3.06,3.06,0,0,1,6.13,0v18.38a3.06,3.06,0,0,1-3.06,3.06Zm0-30.64h0a3.06,3.06,0,0,1-3.06-3.06V288a3.06,3.06,0,1,1,6.13,0v18.38a3.06,3.06,0,0,1-3.06,3.06Zm0-30.64h0a3.06,3.06,0,0,1-3.06-3.06V257.4a3.06,3.06,0,1,1,6.13,0v18.38a3.06,3.06,0,0,1-3.06,3.06Zm0-30.64h0a3.06,3.06,0,0,1-3.06-3.06V226.76a3.06,3.06,0,1,1,6.13,0v18.38a3.06,3.06,0,0,1-3.06,3.06Zm0-30.64h0a3.06,3.06,0,0,1-3.06-3.06V196.12a3.06,3.06,0,1,1,6.13,0V214.5a3.06,3.06,0,0,1-3.06,3.06Zm0-30.64h0a3.06,3.06,0,0,1-3.06-3.06V165.48a3.06,3.06,0,1,1,6.13,0v18.38a3.06,3.06,0,0,1-3.06,3.06Zm0-30.64h0a3.06,3.06,0,0,1-3.06-3.06V134.84a3.06,3.06,0,0,1,6.13,0v18.38A3.06,3.06,0,0,1,888.94,156.29Z" fill="#fff" fill-rule="evenodd"/><path d="M58.5,464.6a3.06,3.06,0,0,1-3.06-3.06v-9.19a3.06,3.06,0,0,1,6.13,0v9.19A3.06,3.06,0,0,1,58.5,464.6Z" fill="#fff" fill-rule="evenodd"/><path d="M58.5,904.77a3.06,3.06,0,0,1-3.06-3.06V882.84a3.06,3.06,0,1,1,6.13,0V901.7a3.06,3.06,0,0,1-3.06,3.06Zm0-31.44h0a3.06,3.06,0,0,1-3.06-3.06V851.4a3.06,3.06,0,1,1,6.13,0v18.86a3.06,3.06,0,0,1-3.06,3.06Zm0-31.44h0a3.06,3.06,0,0,1-3.06-3.06V820a3.06,3.06,0,1,1,6.13,0v18.87a3.06,3.06,0,0,1-3.06,3.06Zm0-31.44h0a3.06,3.06,0,0,1-3.06-3.06V788.52a3.06,3.06,0,1,1,6.13,0v18.86a3.06,3.06,0,0,1-3.06,3.06Zm0-31.44h0a3.06,3.06,0,0,1-3.06-3.06V757.08a3.06,3.06,0,1,1,6.13,0v18.86A3.06,3.06,0,0,1,58.5,779Zm0-31.44h0a3.06,3.06,0,0,1-3.06-3.06V725.64a3.06,3.06,0,1,1,6.13,0V744.5a3.06,3.06,0,0,1-3.06,3.06Zm0-31.44h0a3.06,3.06,0,0,1-3.06-3.06V694.19a3.06,3.06,0,1,1,6.13,0v18.86a3.06,3.06,0,0,1-3.06,3.06Zm0-31.44h0a3.06,3.06,0,0,1-3.06-3.06V662.75a3.06,3.06,0,1,1,6.13,0v18.87a3.06,3.06,0,0,1-3.06,3.06Zm0-31.44h0a3.06,3.06,0,0,1-3.06-3.06V631.32a3.06,3.06,0,1,1,6.13,0v18.86a3.06,3.06,0,0,1-3.06,3.06Zm0-31.44h0a3.06,3.06,0,0,1-3.06-3.06V599.87a3.06,3.06,0,0,1,6.13,0v18.86a3.06,3.06,0,0,1-3.06,3.06Zm0-31.44h0a3.06,3.06,0,0,1-3.06-3.06V568.43a3.06,3.06,0,1,1,6.13,0v18.86a3.06,3.06,0,0,1-3.06,3.06Zm0-31.44h0a3.06,3.06,0,0,1-3.06-3.06V537a3.06,3.06,0,1,1,6.13,0v18.86a3.06,3.06,0,0,1-3.06,3.06Zm0-31.44h0a3.06,3.06,0,0,1-3.06-3.06V505.55a3.06,3.06,0,1,1,6.13,0v18.86a3.06,3.06,0,0,1-3.06,3.06Zm0-31.44h0A3.06,3.06,0,0,1,55.44,493V474.11a3.06,3.06,0,1,1,6.13,0V493A3.06,3.06,0,0,1,58.5,496Z" fill="#fff" fill-rule="evenodd"/><path d="M66.31,931.4a3.09,3.09,0,0,1-1.62-.46l-9.24-5.76V914.28a3.06,3.06,0,1,1,6.13,0v7.49l6.36,4a3.07,3.07,0,0,1-1.62,5.67Z" fill="#fff" fill-rule="evenodd"/><path d="M94.4,948.91a3,3,0,0,1-1.62-.47L75.92,937.93a3.06,3.06,0,0,1,3.25-5.2L96,943.25a3.06,3.06,0,0,1-1.62,5.66Z" fill="#fff" fill-rule="evenodd"/><path d="M113.44,960.77a3,3,0,0,1-1.62-.47l-7.8-4.87a3.06,3.06,0,0,1,3.24-5.19l7.8,4.87a3.06,3.06,0,0,1-1.62,5.66Z" fill="#fff" fill-rule="evenodd"/><path d="M736.45,1308.82a3.06,3.06,0,0,1-3.06-3.06v-9.19a3.06,3.06,0,1,1,6.13,0v9.19A3.06,3.06,0,0,1,736.45,1308.82Z" fill="#fff" fill-rule="evenodd"/><path d="M736.45,1376.16a3.06,3.06,0,0,1-3.06-3.06v-20.2a3.06,3.06,0,1,1,6.13,0v20.2a3.06,3.06,0,0,1-3.06,3.06Zm0-33.67h0a3.06,3.06,0,0,1-3.06-3.06v-20.2a3.06,3.06,0,1,1,6.13,0v20.2A3.06,3.06,0,0,1,736.45,1342.49Z" fill="#fff" fill-rule="evenodd"/><path d="M728.53,1403.48a3.07,3.07,0,0,1-1.56-5.71l6.41-3.77v-7.44a3.06,3.06,0,1,1,6.13,0v10.95l-9.43,5.55A3.06,3.06,0,0,1,728.53,1403.48Z" fill="#fff" fill-rule="evenodd"/><path d="M467.42,1557a3.07,3.07,0,0,1-1.56-5.71l15.66-9.22a3.07,3.07,0,0,1,3.11,5.28L469,1556.62a3.06,3.06,0,0,1-1.56.42Zm26.11-15.36h0A3.07,3.07,0,0,1,492,1536l15.67-9.22a3.07,3.07,0,0,1,3.11,5.28l-15.67,9.22a3.07,3.07,0,0,1-1.56.42Zm26.11-15.36h0a3.07,3.07,0,0,1-1.55-5.71l15.67-9.21a3.07,3.07,0,0,1,3.11,5.28l-15.67,9.22a3.05,3.05,0,0,1-1.56.42ZM545.75,1511h0a3.07,3.07,0,0,1-1.56-5.71l15.67-9.22a3.07,3.07,0,0,1,3.11,5.28l-15.67,9.22a3,3,0,0,1-1.56.42Zm26.11-15.36h0a3.07,3.07,0,0,1-1.56-5.71L586,1480.7a3.07,3.07,0,0,1,3.11,5.28l-15.67,9.21a3.05,3.05,0,0,1-1.56.42ZM598,1480.26h0a3.07,3.07,0,0,1-1.56-5.71l15.67-9.21a3.07,3.07,0,0,1,3.11,5.28l-15.67,9.21a3.05,3.05,0,0,1-1.56.42Zm26.12-15.36h0a3.07,3.07,0,0,1-1.56-5.71l15.66-9.21a3.07,3.07,0,0,1,3.11,5.28l-15.66,9.21a3,3,0,0,1-1.56.42Zm26.11-15.36h0a3.07,3.07,0,0,1-1.55-5.71l15.67-9.21a3.07,3.07,0,0,1,3.11,5.28l-15.67,9.21a3.06,3.06,0,0,1-1.56.42Zm26.11-15.36h0a3.07,3.07,0,0,1-1.55-5.71l15.67-9.21a3.07,3.07,0,0,1,3.11,5.28l-15.67,9.21a3.07,3.07,0,0,1-1.56.42Zm26.11-15.36h0a3.07,3.07,0,0,1-1.55-5.71l15.67-9.21a3.07,3.07,0,0,1,3.11,5.28L704,1418.42A3.07,3.07,0,0,1,702.41,1418.84Z" fill="#fff" fill-rule="evenodd"/><path d="M449.07,1568.33l-9.52-5.48a3.06,3.06,0,1,1,3.06-5.31l6.42,3.7,6.39-3.76a3.07,3.07,0,0,1,3.11,5.28Z" fill="#fff" fill-rule="evenodd"/><path d="M429,1556.29a3.07,3.07,0,0,1-1.53-.41l-18.08-10.44a3.06,3.06,0,0,1,3.06-5.31l18.08,10.44a3.06,3.06,0,0,1-1.53,5.72Zm-30.14-17.4h0a3.08,3.08,0,0,1-1.53-.41L379.27,1528a3.06,3.06,0,0,1,3.06-5.31l18.08,10.44a3.06,3.06,0,0,1-1.53,5.72Z" fill="#fff" fill-rule="evenodd"/><path d="M368.75,1521.5a3.07,3.07,0,0,1-1.53-.41l-8-4.6a3.06,3.06,0,0,1,3.06-5.31l8,4.6a3.07,3.07,0,0,1-1.53,5.72Z" fill="#fff" fill-rule="evenodd"/><path d="M889.44,1217.86a3.06,3.06,0,0,1,1.53.41l8,4.6a3.06,3.06,0,1,1-3.06,5.31l-8-4.6a3.06,3.06,0,0,1,1.53-5.72Z" fill="#fff" fill-rule="evenodd"/><path d="M906.63,1227.79a3.08,3.08,0,0,1,1.53.41l13.84,8a3.06,3.06,0,0,1-3.06,5.31l-13.84-8a3.07,3.07,0,0,1,1.53-5.72Zm23.07,13.32h0a3.07,3.07,0,0,1,1.53.41l13.84,8a3.06,3.06,0,0,1-3.06,5.31l-13.84-8a3.07,3.07,0,0,1,1.53-5.72Zm23.08,13.32h0a3.07,3.07,0,0,1,1.53.41l13.85,8a3.06,3.06,0,1,1-3.06,5.31l-13.85-8a3.06,3.06,0,0,1,1.53-5.72Z" fill="#fff" fill-rule="evenodd"/><path d="M991.74,1267.7a3.07,3.07,0,0,1,1.54,5.71l-9.48,5.52-9.48-5.47a3.06,3.06,0,0,1,3.06-5.31l6.4,3.7,6.4-3.73A3.08,3.08,0,0,1,991.74,1267.7Z" fill="#fff" fill-rule="evenodd"/><path d="M1237.58,1124.37a3.06,3.06,0,0,1,1.54,5.71l-16.39,9.56a3.07,3.07,0,0,1-3.09-5.3l16.39-9.56a3.07,3.07,0,0,1,1.54-.42Zm-27.32,15.93h0a3.07,3.07,0,0,1,1.54,5.71l-16.39,9.55a3.07,3.07,0,0,1-3.09-5.3l16.39-9.55a3.09,3.09,0,0,1,1.54-.41ZM1183,1156.22h0a3.07,3.07,0,0,1,1.54,5.71l-16.39,9.56a3.06,3.06,0,0,1-3.09-5.29l16.39-9.56a3.07,3.07,0,0,1,1.54-.42Zm-27.32,15.93h0a3.07,3.07,0,0,1,1.54,5.71l-16.38,9.55a3.07,3.07,0,0,1-3.09-5.3l16.39-9.55a3.08,3.08,0,0,1,1.54-.42Zm-27.31,15.92h0a3.07,3.07,0,0,1,1.54,5.71l-16.39,9.56a3.07,3.07,0,0,1-3.09-5.3l16.39-9.56a3.06,3.06,0,0,1,1.54-.42ZM1101,1204h0a3.07,3.07,0,0,1,1.54,5.71l-16.39,9.55a3.07,3.07,0,0,1-3.09-5.3l16.39-9.55a3.07,3.07,0,0,1,1.54-.42Zm-27.32,15.92h0a3.07,3.07,0,0,1,1.54,5.71l-16.39,9.56a3.06,3.06,0,0,1-3.09-5.29l16.39-9.56a3.06,3.06,0,0,1,1.54-.42Zm-27.31,15.93h0a3.07,3.07,0,0,1,1.54,5.71l-16.39,9.55a3.07,3.07,0,0,1-3.09-5.3l16.39-9.55a3.07,3.07,0,0,1,1.54-.42Zm-27.31,15.93h0a3.06,3.06,0,0,1,1.54,5.71l-16.39,9.56a3.07,3.07,0,0,1-3.09-5.3l16.39-9.56A3.07,3.07,0,0,1,1019.06,1251.77Z" fill="#fff" fill-rule="evenodd"/><path d="M1256.45,1113.37a3.07,3.07,0,0,1,1.54,5.71l-7.94,4.63a3.07,3.07,0,0,1-3.09-5.3l7.94-4.63A3.07,3.07,0,0,1,1256.45,1113.37Z" fill="#fff" fill-rule="evenodd"/><path d="M86.44,1164.56c18.84,10.88,49.38,10.88,68.22,0s18.84-28.51,0-39.39-49.39-10.88-68.23,0S67.6,1153.68,86.44,1164.56Z" fill-rule="evenodd" opacity="0.15" style="mix-blend-mode:multiply"/><path d="M55.44,1083.63a69.07,69.07,0,0,0,138.14,0c0-38.15-30.93-137.6-69.07-137.6S55.44,1045.49,55.44,1083.63Z" fill="#093b66" fill-rule="evenodd"/><ellipse cx="151.37" cy="1021.69" rx="12.62" ry="38.15" transform="translate(-255.46 72.35) rotate(-14.77)" fill="#0065b1"/><path d="M175,1154.75c12.09,7,31.69,7,43.78,0s12.09-18.3,0-25.28-31.69-7-43.78,0S162.88,1147.77,175,1154.75Z" fill-rule="evenodd" opacity="0.15" style="mix-blend-mode:multiply"/><path d="M155.08,1102.82a44.32,44.32,0,1,0,88.65,0c0-24.48-19.85-88.29-44.32-88.29S155.08,1078.34,155.08,1102.82Z" fill="#0052a4" fill-rule="evenodd"/><ellipse cx="216.64" cy="1063.07" rx="8.1" ry="24.48" transform="translate(-263.86 90.36) rotate(-14.77)" fill="#0065b1"/><path d="M1177.06,1125.35c-14.92,8.61-39.1,8.61-54,0s-14.92-22.57,0-31.19,39.1-8.61,54,0S1192,1116.73,1177.06,1125.35Z" fill-rule="evenodd" opacity="0.15" style="mix-blend-mode:multiply"/><path d="M1201.61,1061.27a54.69,54.69,0,1,1-109.37,0c0-30.2,24.49-108.94,54.69-108.94S1201.61,1031.07,1201.61,1061.27Z" fill="#0052a4" fill-rule="evenodd"/><ellipse cx="1125.66" cy="1012.23" rx="30.21" ry="9.99" transform="translate(-140.1 1842.63) rotate(-75.23)" fill="#0065b1"/><path d="M686.24,1343.26c-12.8,7.39-33.55,7.39-46.35,0s-12.8-19.37,0-26.76,33.55-7.39,46.35,0S699,1335.87,686.24,1343.26Z" fill-rule="evenodd" opacity="0.15" style="mix-blend-mode:multiply"/><circle cx="663.06" cy="1296.6" r="43.35" fill="#0052a4"/><circle cx="651.05" cy="1284.58" r="17.15" fill="#0065b1"/><path d="M1326.83,1133.27a59,59,0,1,0-59-59A59.11,59.11,0,0,0,1326.83,1133.27Z" fill="#fff" fill-rule="evenodd"/><path d="M1380.11,1021.67h0a10.5,10.5,0,0,0-15.34,2.62l-38.55,57.28-22.09-17.32a10.5,10.5,0,0,0-15.34,2.62h0a12.51,12.51,0,0,0,2.43,16.55l31,24.29h0a10.5,10.5,0,0,0,15.34-2.62h0l45-66.86A12.51,12.51,0,0,0,1380.11,1021.67Z" fill="#0065b1"/><path d="M1380.34,1047.8l-9.4,13.75a45.83,45.83,0,1,1-18.35-24.92l7.53-11.65A59.55,59.55,0,1,0,1382,1051.4Q1381.24,1049.57,1380.34,1047.8Z" fill="#0065b1"/><path d="M297.83,1521.27a59,59,0,1,0-59-59A59.11,59.11,0,0,0,297.83,1521.27Z" fill="#fff" fill-rule="evenodd"/><path d="M351.11,1409.67h0a10.5,10.5,0,0,0-15.34,2.62l-38.55,57.28-22.09-17.32a10.5,10.5,0,0,0-15.34,2.62h0a12.51,12.51,0,0,0,2.43,16.55l31,24.29h0a10.5,10.5,0,0,0,15.34-2.62h0l45-66.86A12.51,12.51,0,0,0,351.11,1409.67Z" fill="#0065b1"/><path d="M351.34,1435.8l-9.4,13.75a45.83,45.83,0,1,1-18.35-24.92l7.53-11.65A59.55,59.55,0,1,0,353,1439.4Q352.24,1437.57,351.34,1435.8Z" fill="#0065b1"/><path d="M59.38,436.29a59,59,0,1,0-59-59A59.11,59.11,0,0,0,59.38,436.29Z" fill="#fff" fill-rule="evenodd"/><path d="M112.65,324.69h0a10.5,10.5,0,0,0-15.34,2.62L58.76,384.59,36.67,367.27a10.5,10.5,0,0,0-15.34,2.62h0a12.51,12.51,0,0,0,2.43,16.55l31,24.29h0a10.5,10.5,0,0,0,15.34-2.62h0l45-66.86A12.51,12.51,0,0,0,112.65,324.69Z" fill="#0065b1"/><path d="M112.89,350.82l-9.4,13.75a45.83,45.83,0,1,1-18.35-24.92L92.68,328a59.55,59.55,0,1,0,21.87,26.42Q113.78,352.59,112.89,350.82Z" fill="#0065b1"/><path d="M890.86,118.28a59,59,0,1,0-59-59A59.11,59.11,0,0,0,890.86,118.28Z" fill="#fff" fill-rule="evenodd"/><path d="M944.13,6.68h0A10.5,10.5,0,0,0,928.8,9.3L890.25,66.58,868.16,49.26a10.5,10.5,0,0,0-15.34,2.62h0a12.51,12.51,0,0,0,2.43,16.55l31,24.29h0a10.5,10.5,0,0,0,15.34-2.62h0l45-66.86A12.51,12.51,0,0,0,944.13,6.68Z" fill="#0065b1"/><path d="M944.37,32.82,935,46.57a45.83,45.83,0,1,1-18.35-24.92L924.16,10A59.55,59.55,0,1,0,946,36.41Q945.26,34.58,944.37,32.82Z" fill="#0065b1"/></g></svg>