<svg xmlns="http://www.w3.org/2000/svg" viewBox="0 0 1537.04 1119.45"><title>Asset 1</title><g style="isolation:isolate"><path d="M768.52,1119.45c423.29,0,768.52-205.09,768.52-456.55S1191.81,206.34,768.52,206.34,0,411.43,0,662.89,345.23,1119.45,768.52,1119.45Z" fill="#2e7ec2" fill-rule="evenodd"/><path d="M875.6,210.77c373.75,31,661.44,221.56,661.44,452.12S1249.35,1084.06,875.6,1115Z" fill="#005aa8" fill-rule="evenodd"/><ellipse cx="768.52" cy="639.15" rx="768.52" ry="440.95" fill="#f5a627"/><path d="M580.58,808l-297.08,172,10.21,5.83q35.78,16.15,74.87,29.85L654.46,850.2l73.45-42.9L580.15,723,506.7,765.9Z" fill="#ef7a00" fill-rule="evenodd"/><polygon points="845.65 837.54 1055.54 918.22 1481.61 726.38 1448.76 525.86 1024.32 287.9 476.27 783.52 758.78 781.94 845.65 837.54" fill="#f19b00" fill-rule="evenodd"/><polygon points="536.99 783.18 684.19 782.36 580.15 722.99 506.7 765.9 536.99 783.18" fill="#d76710" fill-rule="evenodd"/><polygon points="749.77 395.62 1026.07 235.08 662.48 25.17 386.18 185.73 749.77 395.62" fill="#8ec0bb" fill-rule="evenodd"/><polygon points="747.02 754.23 1023.29 593.67 1024.52 227.35 748.22 387.89 747.02 754.23" fill="#3682c4" fill-rule="evenodd"/><polygon points="384.64 177.99 383.43 544.3 747.02 754.23 748.22 387.89 384.64 177.99" fill="#87bee7" fill-rule="evenodd"/><polygon points="753.87 420.03 1068.05 237.41 658.85 0 344.64 182.56 753.87 420.03" fill="#0052a4" fill-rule="evenodd"/><polygon points="753.87 420.03 713.26 88.75 344.64 182.56 753.87 420.03" fill="#0065b1" fill-rule="evenodd"/><polygon points="1068.05 237.41 713.26 88.75 658.85 0 1068.05 237.41" fill="#093b66" fill-rule="evenodd"/><path d="M383.51,578.34l.12-42.68L724.14,732.25v.08L747,745.66l.12,42.26C627.15,718.17,504.77,648.35,383.51,578.34Z" fill="#0065b1" fill-rule="evenodd"/><polygon points="747.05 745.66 747.17 787.93 938.6 689.15 938.96 645.34 747.05 745.66" fill="#093b66" fill-rule="evenodd"/><polygon points="561.28 46.4 561.35 72.82 590.44 91.35 590.27 29.66 561.28 46.4" fill="#093b66" fill-rule="evenodd"/><polygon points="590.27 29.66 590.44 91.35 619.16 78.71 619.07 46.4 590.27 29.66" fill="#0065b1" fill-rule="evenodd"/><polygon points="590.05 68.09 590.23 107.35 627.72 81.26 627.62 46.4 590.05 68.09" fill="#093b66" fill-rule="evenodd"/><polygon points="552.73 46.4 552.73 98.1 590.23 107.35 590.05 68.09 552.73 46.4" fill="#0065b1" fill-rule="evenodd"/><polygon points="561.15 44.94 561.17 52.65 590.1 35.95 590.08 28.23 561.15 44.94" fill="#d76710" fill-rule="evenodd"/><polygon points="590.08 28.23 590.1 35.95 618.9 52.68 618.88 44.97 590.08 28.23" fill="#f5a627" fill-rule="evenodd"/><polygon points="589.9 71.23 589.92 78.94 635.39 52.68 635.37 44.97 589.9 71.23" fill="#d76710" fill-rule="evenodd"/><polygon points="544.71 44.97 544.74 52.68 589.92 78.94 589.9 71.23 544.71 44.97" fill="#f5a627" fill-rule="evenodd"/><path d="M590,61.68,618.87,45l-28.8-16.74L561.15,44.94,590,61.68Zm.23-43L635.37,45,589.9,71.23,544.71,45Z" fill="#ef7a00" fill-rule="evenodd"/><polygon points="785.14 492.96 785.14 725.44 1050.6 878.71 1050.6 646.22 785.14 492.96" fill="#87bee7" fill-rule="evenodd"/><polygon points="1187.04 489.32 1323.36 494.55 1323.36 721.23 1050.6 878.71 1050.6 652.02 1187.04 489.32" fill="#3682c4" fill-rule="evenodd"/><path d="M785,768.12l.12-42.68L1027.7,865.3v.08l22.9,13.33.12,42.26C963.06,870,873.81,819.32,785,768.12Z" fill="#0065b1" fill-rule="evenodd"/><polygon points="1050.6 878.71 1050.73 920.98 1323 765.04 1323.36 721.23 1050.6 878.71" fill="#093b66" fill-rule="evenodd"/><path d="M821.79,618l178.75,103.6-.28,164.52L821.51,782.48,821.79,618Zm-5.79-10h0l-.28,177.89,190.33,110.29.28-177.9Z" fill="#fff" fill-rule="evenodd"/><polygon points="821.51 782.48 1000.26 886.08 1000.26 879.39 827.3 779.14 821.51 782.48" fill="#bfd6dd" fill-rule="evenodd"/><polygon points="821.79 617.96 821.51 782.48 827.3 779.14 827.59 621.31 821.79 617.96" fill="#7daab5" fill-rule="evenodd"/><polygon points="827.59 621.31 827.59 778.08 1000.54 878.33 1000.54 721.56 827.59 621.31" fill="#58c1d7" fill-rule="evenodd"/><polygon points="833.1 775.79 833.38 624.65 827.59 621.31 827.3 779.14 1000.26 879.39 1000.26 872.7 833.1 775.79" fill="#004c8e" fill-rule="evenodd"/><polygon points="1000.54 737.08 827.59 636.84 827.59 640.41 1000.54 740.65 1000.54 737.08" fill="#004c8e" fill-rule="evenodd"/><polygon points="424.96 343.5 461.79 364.88 461.79 357.6 431.82 340.29 424.96 343.5" fill="#bfd6dd" fill-rule="evenodd"/><polygon points="424.97 293.59 424.96 343.5 431.82 340.29 431.83 297.66 424.97 293.59" fill="#fff" fill-rule="evenodd"/><polygon points="431.83 297.66 431.82 340.29 461.79 357.6 461.8 314.97 431.83 297.66" fill="#58c1d7" fill-rule="evenodd"/><polygon points="439.65 335.65 439.66 302.18 461.8 314.97 439.65 335.65" fill="#b4dfe9" fill-rule="evenodd"/><polygon points="461.8 319.94 442.94 337.55 446.22 339.44 461.8 325.09 461.8 319.94" fill="#b4dfe9" fill-rule="evenodd"/><polygon points="436.29 337.71 436.29 300.24 431.83 297.66 431.82 340.29 461.79 357.6 461.79 352.45 436.29 337.71" fill="#004c8e" fill-rule="evenodd"/><polygon points="535.46 407.65 572.29 429.03 572.3 421.75 542.33 404.44 535.46 407.65" fill="#bfd6dd" fill-rule="evenodd"/><polygon points="535.47 357.74 535.46 407.65 542.33 404.44 542.34 361.81 535.47 357.74" fill="#fff" fill-rule="evenodd"/><polygon points="542.34 361.81 542.33 404.44 572.3 421.75 572.31 379.12 542.34 361.81" fill="#58c1d7" fill-rule="evenodd"/><polygon points="550.15 399.8 550.16 366.33 572.31 379.12 550.15 399.8" fill="#b4dfe9" fill-rule="evenodd"/><polygon points="572.31 384.08 553.44 401.69 556.73 403.59 572.3 389.24 572.31 384.08" fill="#b4dfe9" fill-rule="evenodd"/><polygon points="546.79 401.86 546.8 364.38 542.34 361.81 542.33 404.44 572.3 421.75 572.3 416.6 546.79 401.86" fill="#004c8e" fill-rule="evenodd"/><polygon points="645.97 471.8 682.8 493.18 682.8 485.89 652.83 468.58 645.97 471.8" fill="#bfd6dd" fill-rule="evenodd"/><polygon points="645.98 421.88 645.97 471.8 652.83 468.58 652.84 425.95 645.98 421.88" fill="#fff" fill-rule="evenodd"/><polygon points="652.84 425.95 652.83 468.58 682.8 485.89 682.81 443.27 652.84 425.95" fill="#58c1d7" fill-rule="evenodd"/><polygon points="660.66 463.94 660.67 430.48 682.81 443.27 660.66 463.94" fill="#b4dfe9" fill-rule="evenodd"/><polygon points="682.81 448.23 663.94 465.84 667.23 467.74 682.81 453.38 682.81 448.23" fill="#b4dfe9" fill-rule="evenodd"/><polygon points="657.29 466.01 657.3 428.53 652.84 425.95 652.83 468.58 682.8 485.89 682.8 480.75 657.29 466.01" fill="#004c8e" fill-rule="evenodd"/><polygon points="1000.54 755.68 827.59 655.44 827.59 659 1000.54 759.25 1000.54 755.68" fill="#004c8e" fill-rule="evenodd"/><polygon points="1000.54 774.28 827.59 674.03 827.59 677.6 1000.54 777.85 1000.54 774.28" fill="#004c8e" fill-rule="evenodd"/><polygon points="1000.54 792.87 827.59 692.63 827.59 696.2 1000.54 796.44 1000.54 792.87" fill="#004c8e" fill-rule="evenodd"/><polygon points="1000.54 811.47 827.59 711.23 827.59 714.79 1000.54 815.04 1000.54 811.47" fill="#004c8e" fill-rule="evenodd"/><polygon points="1000.54 830.07 827.59 729.82 827.59 733.39 1000.54 833.64 1000.54 830.07" fill="#004c8e" fill-rule="evenodd"/><polygon points="1000.54 848.66 827.59 748.42 827.59 751.99 1000.54 852.23 1000.54 848.66" fill="#004c8e" fill-rule="evenodd"/><polygon points="1270.44 635.71 1233.61 657.09 1233.61 649.81 1263.57 632.5 1270.44 635.71" fill="#bfd6dd" fill-rule="evenodd"/><polygon points="1270.43 585.8 1270.44 635.71 1263.57 632.5 1263.57 589.87 1270.43 585.8" fill="#fff" fill-rule="evenodd"/><polygon points="1263.57 589.87 1263.57 632.5 1233.61 649.81 1233.6 607.18 1263.57 589.87" fill="#58c1d7" fill-rule="evenodd"/><polygon points="1255.75 627.86 1255.74 594.39 1233.6 607.18 1255.75 627.86" fill="#b4dfe9" fill-rule="evenodd"/><polygon points="1233.6 612.14 1252.46 629.75 1249.18 631.65 1233.6 617.3 1233.6 612.14" fill="#b4dfe9" fill-rule="evenodd"/><polygon points="1259.11 629.92 1259.1 592.44 1263.57 589.87 1263.57 632.5 1233.61 649.81 1233.61 644.66 1259.11 629.92" fill="#004c8e" fill-rule="evenodd"/><polygon points="1159.94 699.86 1123.1 721.24 1123.1 713.96 1153.07 696.64 1159.94 699.86" fill="#bfd6dd" fill-rule="evenodd"/><polygon points="1159.93 649.94 1159.94 699.86 1153.07 696.64 1153.06 654.02 1159.93 649.94" fill="#fff" fill-rule="evenodd"/><polygon points="1153.06 654.02 1153.07 696.64 1123.1 713.96 1123.09 671.33 1153.06 654.02" fill="#58c1d7" fill-rule="evenodd"/><polygon points="1145.24 692 1145.23 658.54 1123.09 671.33 1145.24 692" fill="#b4dfe9" fill-rule="evenodd"/><polygon points="1123.09 676.29 1141.96 693.9 1138.67 695.8 1123.09 681.45 1123.09 676.29" fill="#b4dfe9" fill-rule="evenodd"/><polygon points="1148.61 694.07 1148.6 656.59 1153.06 654.02 1153.07 696.64 1123.1 713.96 1123.1 708.81 1148.61 694.07" fill="#004c8e" fill-rule="evenodd"/><polygon points="470.27 787.01 492.91 773.85 492.91 773.85 586.5 719.46 586.5 719.46 606.68 707.73 607.29 497.09 470.87 576.36 470.27 787.01" fill="#3682c4" fill-rule="evenodd"/><polygon points="249.42 448.52 248.83 659.15 470.27 787.01 470.87 576.36 249.42 448.52" fill="#87bee7" fill-rule="evenodd"/><polygon points="436.33 559.37 577.79 477.17 391.64 369.7 250.18 451.91 436.33 559.37" fill="#8ec0bb" fill-rule="evenodd"/><polygon points="473.93 592.37 634.79 498.87 389.78 356.82 228.91 450.29 473.93 592.37" fill="#0052a4" fill-rule="evenodd"/><polygon points="473.93 592.37 422.23 403.64 228.91 450.29 473.93 592.37" fill="#0065b1" fill-rule="evenodd"/><polygon points="634.79 498.87 422.23 403.64 389.78 356.82 634.79 498.87" fill="#093b66" fill-rule="evenodd"/><path d="M651.34,555V665.25l50.55,29.19V584.18L651.34,555Zm-6.55-11.34h0l63.65,36.75V705.77L644.79,669Z" fill="#fff" fill-rule="evenodd"/><polygon points="651.34 665.25 701.89 694.43 701.89 686.87 657.88 661.47 651.34 665.25" fill="#bfd6dd" fill-rule="evenodd"/><polygon points="651.34 555 651.34 665.25 657.88 661.47 657.88 558.77 651.34 555" fill="#7daab5" fill-rule="evenodd"/><polygon points="657.88 558.77 657.88 661.47 701.89 686.87 701.89 584.18 657.88 558.77" fill="#58c1d7" fill-rule="evenodd"/><polygon points="669.37 614.54 669.37 565.41 701.89 584.18 669.37 614.54" fill="#b4dfe9" fill-rule="evenodd"/><polygon points="701.89 591.47 674.2 617.33 679.02 620.11 701.89 599.04 701.89 591.47" fill="#b4dfe9" fill-rule="evenodd"/><polygon points="664.43 657.69 664.43 562.56 657.88 558.77 657.88 661.47 701.89 686.87 701.89 679.31 664.43 657.69" fill="#004c8e" fill-rule="evenodd"/><polygon points="701.89 633.32 657.88 607.91 653.95 610.15 701.89 637.84 701.89 633.32" fill="#bfd6dd" fill-rule="evenodd"/><polygon points="701.89 637.84 653.95 610.15 653.95 614.19 701.89 641.86 701.89 637.84" fill="#f1f6f8" fill-rule="evenodd"/><path d="M596.5,818.57,671.2,775l-74.72,43.57Zm-15.68-95.81-.09-.06-74.79,43.58h0Z" fill="#ef7a00" fill-rule="evenodd"/><path d="M248.82,659.53l.12-42.68,198.3,114.49v.08l22.9,13.33.12,42.26C350.25,717.25,370.08,729.53,248.82,659.53Z" fill="#0065b1" fill-rule="evenodd"/><polygon points="470.15 744.74 470.27 787.01 606.68 707.73 606.81 664.51 470.15 744.74" fill="#093b66" fill-rule="evenodd"/><path d="M272.19,510.41V620.66l50.55,29.19V539.6l-50.55-29.19Zm-6.55-11.34h0l63.65,36.75V661.19l-63.65-36.75Z" fill="#fff" fill-rule="evenodd"/><polygon points="272.19 620.66 322.74 649.85 322.74 642.28 278.74 616.88 272.19 620.66" fill="#bfd6dd" fill-rule="evenodd"/><polygon points="272.19 510.41 272.19 620.66 278.74 616.88 278.74 514.19 272.19 510.41" fill="#7daab5" fill-rule="evenodd"/><polygon points="278.74 514.19 278.74 616.88 322.74 642.28 322.74 539.6 278.74 514.19" fill="#58c1d7" fill-rule="evenodd"/><polygon points="290.23 569.96 290.23 520.82 322.74 539.6 290.23 569.96" fill="#b4dfe9" fill-rule="evenodd"/><polygon points="322.74 546.88 295.05 572.74 299.88 575.52 322.74 554.45 322.74 546.88" fill="#b4dfe9" fill-rule="evenodd"/><polygon points="285.29 613.1 285.29 517.97 278.74 514.19 278.74 616.88 322.74 642.28 322.74 634.73 285.29 613.1" fill="#004c8e" fill-rule="evenodd"/><polygon points="322.74 588.73 278.74 563.32 274.8 565.57 322.74 593.25 322.74 588.73" fill="#bfd6dd" fill-rule="evenodd"/><polygon points="322.74 593.25 274.8 565.57 274.8 569.6 322.74 597.28 322.74 593.25" fill="#f1f6f8" fill-rule="evenodd"/><path d="M373.86,569.25V679.5l50.55,29.19V598.43l-50.55-29.19Zm-6.55-11.34h0L431,594.65V720l-63.65-36.75Z" fill="#fff" fill-rule="evenodd"/><polygon points="373.86 679.5 424.41 708.69 424.41 701.13 380.41 675.72 373.86 679.5" fill="#bfd6dd" fill-rule="evenodd"/><polygon points="373.86 569.25 373.86 679.5 380.41 675.72 380.41 573.03 373.86 569.25" fill="#7daab5" fill-rule="evenodd"/><polygon points="380.41 573.03 380.41 675.72 424.41 701.13 424.41 598.43 380.41 573.03" fill="#58c1d7" fill-rule="evenodd"/><polygon points="391.9 628.79 391.9 579.66 424.41 598.43 391.9 628.79" fill="#b4dfe9" fill-rule="evenodd"/><polygon points="424.41 605.72 396.72 631.58 401.55 634.36 424.41 613.29 424.41 605.72" fill="#b4dfe9" fill-rule="evenodd"/><polygon points="386.96 671.94 386.96 576.81 380.41 573.03 380.41 675.72 424.41 701.13 424.41 693.57 386.96 671.94" fill="#004c8e" fill-rule="evenodd"/><polygon points="424.41 647.57 380.41 622.16 376.47 624.41 424.41 652.09 424.41 647.57" fill="#bfd6dd" fill-rule="evenodd"/><polygon points="424.41 652.09 376.47 624.41 376.47 628.44 424.41 656.12 424.41 652.09" fill="#f1f6f8" fill-rule="evenodd"/><path d="M580.44,558.19l-74.79,43.58.28,164.52,74.79-43.58-.28-164.52Zm5.79-10h0l.27,171.3-86.38,50.2-.27-171.23Z" fill="#fff" fill-rule="evenodd"/><polygon points="580.72 722.71 505.93 766.28 505.93 759.6 574.93 719.36 580.72 722.71" fill="#004c8e" fill-rule="evenodd"/><polygon points="580.44 558.19 580.72 722.71 574.93 719.36 574.65 561.53 580.44 558.19" fill="#004c8e" fill-rule="evenodd"/><polygon points="574.93 561.3 574.93 719.36 505.93 759.66 505.65 601.76 574.93 561.3" fill="#ef7a00" fill-rule="evenodd"/><path d="M520.11,672.75a7.3,7.3,0,0,1,2.57-2.71,2.62,2.62,0,0,1,2.61-.28l-4.6-2.65h0a.72.72,0,0,0-.18-.1l-.18-.07-.21,0-.21,0h-.24a1.77,1.77,0,0,0-.27,0l-.33.06-.44.16a4.1,4.1,0,0,0-.53.26,6.05,6.05,0,0,0-1.22.94,4.71,4.71,0,0,0-.39.44c-.11.11-.21.24-.31.36l-.24.33-.21.33a2.28,2.28,0,0,0-.2.3h0c0,.1-.11.18-.16.28s-.11.21-.16.32L515,671a2.61,2.61,0,0,1-.13.32,3.47,3.47,0,0,0-.12.35l-.11.37-.11.41c0,.17-.06.35-.08.51s-.05.48-.05.72a2.54,2.54,0,0,0,1.09,2.32l4.6,2.67a2.52,2.52,0,0,1-1.08-2.33,7.34,7.34,0,0,1,1.06-3.6Z" fill="#d76710" fill-rule="evenodd"/><path d="M522.68,670c2-1.18,3.66-.26,3.68,2.09a8.08,8.08,0,0,1-3.65,6.32c-2,1.16-3.67.21-3.67-2.09A8,8,0,0,1,522.68,670Z" fill="#87bee7" fill-rule="evenodd"/><path d="M513.79,746.63l-.16-58,54.14-31.26.17,58-54.15,31.25ZM513.4,607l.22,76.64,54.14-31.25-.21-76.65L513.4,607Zm58,48.26v-5l-.23-80.95-61.44,35.47.25,81v5l.18,62.31,61.43-35.47Z" fill="#d76710" fill-rule="evenodd"/><path d="M184.89,647.74c-14.24,8.22-37.33,8.22-51.58,0s-14.24-21.55,0-29.78,37.33-8.22,51.58,0S199.13,639.52,184.89,647.74Z" fill-rule="evenodd" opacity="0.15" style="mix-blend-mode:multiply"/><path d="M159.1,632.85a10,10,0,0,1-9.94-9.95V555.09a9.94,9.94,0,0,1,19.89,0v67.82A10,10,0,0,1,159.1,632.85Z" fill="#0065b1" fill-rule="evenodd"/><path d="M159.1,625a10,10,0,0,1-9.94-9.95v7.85a9.94,9.94,0,1,0,19.89,0v-7.85A10,10,0,0,1,159.1,625Z" fill-rule="evenodd" opacity="0.15" style="mix-blend-mode:multiply"/><path d="M159.1,566.84a10,10,0,0,0-9.94,9.94V605A48.15,48.15,0,0,0,169,605V576.78A10,10,0,0,0,159.1,566.84Z" fill-rule="evenodd" opacity="0.15" style="mix-blend-mode:multiply"/><path d="M215.13,538.12a56,56,0,0,1-112.06,0c0-30.94,25.09-111.62,56-111.62S215.13,507.18,215.13,538.12Z" fill="#093b66" fill-rule="evenodd"/><ellipse cx="137.31" cy="487.87" rx="30.95" ry="10.24" transform="translate(-369.45 496.27) rotate(-75.23)" fill="#0065b1"/><path d="M1442.89,727.49c-12.93,7.47-33.9,7.47-46.83,0s-12.93-19.57,0-27,33.9-7.47,46.83,0S1455.83,720,1442.89,727.49Z" fill-rule="evenodd" opacity="0.15" style="mix-blend-mode:multiply"/><path d="M1419.48,714a9.06,9.06,0,0,1-9-9V643.36a9,9,0,0,1,18.06,0v61.58A9.06,9.06,0,0,1,1419.48,714Z" fill="#0065b1" fill-rule="evenodd"/><path d="M1419.48,706.84a9.06,9.06,0,0,1-9-9v7.13a9,9,0,1,0,18.06,0v-7.13A9.06,9.06,0,0,1,1419.48,706.84Z" fill-rule="evenodd" opacity="0.15" style="mix-blend-mode:multiply"/><path d="M1419.48,654a9.06,9.06,0,0,0-9,9v25.6a43.73,43.73,0,0,0,18.06,0v-25.6A9.06,9.06,0,0,0,1419.48,654Z" fill-rule="evenodd" opacity="0.15" style="mix-blend-mode:multiply"/><path d="M1470.35,628a50.88,50.88,0,1,1-101.75,0c0-28.1,22.78-101.35,50.88-101.35S1470.35,599.86,1470.35,628Z" fill="#093b66" fill-rule="evenodd"/><ellipse cx="1399.7" cy="582.33" rx="28.1" ry="9.3" transform="translate(479.72 1787.27) rotate(-75.23)" fill="#0065b1"/><path d="M788.46,801.54c-14.24,8.22-37.33,8.22-51.57,0s-14.24-21.55,0-29.78,37.33-8.22,51.58,0S802.7,793.31,788.46,801.54Z" fill-rule="evenodd" opacity="0.15" style="mix-blend-mode:multiply"/><path d="M811.9,740.36a52.21,52.21,0,1,1-104.43,0c0-28.84,23.38-104,52.21-104S811.9,711.52,811.9,740.36Z" fill="#093b66" fill-rule="evenodd"/><ellipse cx="739.38" cy="693.53" rx="28.84" ry="9.54" transform="translate(-119.73 1231.67) rotate(-75.23)" fill="#0065b1"/><path d="M721.53,794.12c-9.14,5.28-24,5.28-33.1,0s-9.14-13.83,0-19.11,24-5.28,33.1,0S730.67,788.85,721.53,794.12Z" fill-rule="evenodd" opacity="0.15" style="mix-blend-mode:multiply"/><path d="M736.57,754.86a33.51,33.51,0,1,1-67,0c0-18.5,15-66.75,33.51-66.75S736.57,736.36,736.57,754.86Z" fill="#0052a4" fill-rule="evenodd"/><ellipse cx="690.04" cy="724.82" rx="18.51" ry="6.12" transform="translate(-186.75 1207.26) rotate(-75.23)" fill="#0065b1"/><path d="M421.49,914.07c-11.72,6.77-30.72,6.77-42.45,0s-11.72-17.74,0-24.51,30.73-6.77,42.45,0S433.21,907.3,421.49,914.07Z" fill-rule="evenodd" opacity="0.15" style="mix-blend-mode:multiply"/><path d="M440.78,863.72a43,43,0,0,1-85.94,0c0-23.73,19.24-85.61,43-85.61S440.78,840,440.78,863.72Z" fill="#093b66" fill-rule="evenodd"/><ellipse cx="381.1" cy="825.19" rx="23.74" ry="7.85" transform="translate(-513.98 983.33) rotate(-75.23)" fill="#0065b1"/><path d="M228.79,466l.12-15.68L451,579V579l22.9,13.33.12,15.26C354,537.88,350,536,228.79,466Z" fill="#fff" fill-rule="evenodd"/><polygon points="473.93 592.37 474.06 607.63 634.66 515.09 634.79 498.87 473.93 592.37" fill="#7daab5" fill-rule="evenodd"/><path d="M344.52,198.24l.12-15.68,386,221.13v.08l22.9,13.33.12,15.26C633.61,362.61,465.78,268.25,344.52,198.24Z" fill="#fff" fill-rule="evenodd"/><polygon points="753.51 417.11 753.63 432.37 1067.92 253.63 1068.05 237.41 753.51 417.11" fill="#7daab5" fill-rule="evenodd"/><polygon points="1190.85 498.62 1347.52 504.63 1347.52 517.93 1190.85 511.93 1034.18 698.76 1034.18 685.45 1190.85 498.62" fill="#093b66" fill-rule="evenodd"/><polygon points="1190.85 498.62 911.27 337.54 754.6 524.37 1034.18 685.45 1190.85 498.62" fill="#0065b1" fill-rule="evenodd"/><polygon points="1347.52 504.63 1067.94 343.55 911.27 337.54 1190.85 498.62 1347.52 504.63" fill="#0052a4" fill-rule="evenodd"/><polygon points="754.6 524.37 754.6 537.68 1034.18 698.76 1034.18 685.45 754.6 524.37" fill="#093b66" fill-rule="evenodd"/><polygon points="1190.85 511.93 1347.52 517.93 1347.52 541.58 1190.85 535.58 1034.18 722.41 1034.18 698.76 1190.85 511.93" fill="#7daab5" fill-rule="evenodd"/><polygon points="754.6 537.68 754.6 561.33 1034.18 722.41 1034.18 698.76 754.6 537.68" fill="#fff" fill-rule="evenodd"/></g></svg>